<?xml version="1.0" encoding="UTF-8"?>
<!DOCTYPE svg PUBLIC "-//W3C//DTD SVG 1.1//EN" "http://www.w3.org/Graphics/SVG/1.1/DTD/svg11.dtd">
<svg version="1.2" width="153.19mm" height="32.28mm" viewBox="0 0 15319 3228" preserveAspectRatio="xMidYMid" fill-rule="evenodd" stroke-width="28.222" stroke-linejoin="round" xmlns="http://www.w3.org/2000/svg" xmlns:ooo="http://xml.openoffice.org/svg/export" xmlns:xlink="http://www.w3.org/1999/xlink" xmlns:presentation="http://sun.com/xmlns/staroffice/presentation" xmlns:smil="http://www.w3.org/2001/SMIL20/" xmlns:anim="urn:oasis:names:tc:opendocument:xmlns:animation:1.0" xml:space="preserve">
 <defs class="ClipPathGroup">
  <clipPath id="presentation_clip_path" clipPathUnits="userSpaceOnUse">
   <rect x="0" y="0" width="15319" height="3228"/>
  </clipPath>
  <clipPath id="presentation_clip_path_shrink" clipPathUnits="userSpaceOnUse">
   <rect x="15" y="3" width="15289" height="3222"/>
  </clipPath>
 </defs>
 <defs class="TextShapeIndex">
  <g ooo:slide="id1" ooo:id-list="id3"/>
 </defs>
 <defs class="EmbeddedBulletChars">
  <g id="bullet-char-template-57356" transform="scale(0.00048828125,-0.00048828125)">
   <path d="M 580,1141 L 1163,571 580,0 -4,571 580,1141 Z"/>
  </g>
  <g id="bullet-char-template-57354" transform="scale(0.00048828125,-0.00048828125)">
   <path d="M 8,1128 L 1137,1128 1137,0 8,0 8,1128 Z"/>
  </g>
  <g id="bullet-char-template-10146" transform="scale(0.00048828125,-0.00048828125)">
   <path d="M 174,0 L 602,739 174,1481 1456,739 174,0 Z M 1358,739 L 309,1346 659,739 1358,739 Z"/>
  </g>
  <g id="bullet-char-template-10132" transform="scale(0.00048828125,-0.00048828125)">
   <path d="M 2015,739 L 1276,0 717,0 1260,543 174,543 174,936 1260,936 717,1481 1274,1481 2015,739 Z"/>
  </g>
  <g id="bullet-char-template-10007" transform="scale(0.00048828125,-0.00048828125)">
   <path d="M 0,-2 C -7,14 -16,27 -25,37 L 356,567 C 262,823 215,952 215,954 215,979 228,992 255,992 264,992 276,990 289,987 310,991 331,999 354,1012 L 381,999 492,748 772,1049 836,1024 860,1049 C 881,1039 901,1025 922,1006 886,937 835,863 770,784 769,783 710,716 594,584 L 774,223 C 774,196 753,168 711,139 L 727,119 C 717,90 699,76 672,76 641,76 570,178 457,381 L 164,-76 C 142,-110 111,-127 72,-127 30,-127 9,-110 8,-76 1,-67 -2,-52 -2,-32 -2,-23 -1,-13 0,-2 Z"/>
  </g>
  <g id="bullet-char-template-10004" transform="scale(0.00048828125,-0.00048828125)">
   <path d="M 285,-33 C 182,-33 111,30 74,156 52,228 41,333 41,471 41,549 55,616 82,672 116,743 169,778 240,778 293,778 328,747 346,684 L 369,508 C 377,444 397,411 428,410 L 1163,1116 C 1174,1127 1196,1133 1229,1133 1271,1133 1292,1118 1292,1087 L 1292,965 C 1292,929 1282,901 1262,881 L 442,47 C 390,-6 338,-33 285,-33 Z"/>
  </g>
  <g id="bullet-char-template-9679" transform="scale(0.00048828125,-0.00048828125)">
   <path d="M 813,0 C 632,0 489,54 383,161 276,268 223,411 223,592 223,773 276,916 383,1023 489,1130 632,1184 813,1184 992,1184 1136,1130 1245,1023 1353,916 1407,772 1407,592 1407,412 1353,268 1245,161 1136,54 992,0 813,0 Z"/>
  </g>
  <g id="bullet-char-template-8226" transform="scale(0.00048828125,-0.00048828125)">
   <path d="M 346,457 C 273,457 209,483 155,535 101,586 74,649 74,723 74,796 101,859 155,911 209,963 273,989 346,989 419,989 480,963 531,910 582,859 608,796 608,723 608,648 583,586 532,535 482,483 420,457 346,457 Z"/>
  </g>
  <g id="bullet-char-template-8211" transform="scale(0.00048828125,-0.00048828125)">
   <path d="M -4,459 L 1135,459 1135,606 -4,606 -4,459 Z"/>
  </g>
  <g id="bullet-char-template-61548" transform="scale(0.00048828125,-0.00048828125)">
   <path d="M 173,740 C 173,903 231,1043 346,1159 462,1274 601,1332 765,1332 928,1332 1067,1274 1183,1159 1299,1043 1357,903 1357,740 1357,577 1299,437 1183,322 1067,206 928,148 765,148 601,148 462,206 346,322 231,437 173,577 173,740 Z"/>
  </g>
 </defs>
 <defs class="TextEmbeddedBitmaps"/>
 <g>
  <g id="id2" class="Master_Slide">
   <g id="bg-id2" class="Background"/>
   <g id="bo-id2" class="BackgroundObjects"/>
  </g>
 </g>
 <g class="SlideGroup">
  <g>
   <g id="container-id1">
    <g id="id1" class="Slide" clip-path="url(#presentation_clip_path)">
     <g class="Page">
      <g class="Graphic">
       <g id="id3">
        <rect class="BoundingBox" stroke="none" fill="none" x="0" y="0" width="15319" height="3228"/>
        <defs>
         <clipPath id="clip_path_1" clipPathUnits="userSpaceOnUse">
          <path d="M 922,471 L 937,471 925,465 922,471 Z M 963,456 L 975,447 C 969,444 966,444 960,453 960,456 960,456 963,456 Z M 853,528 C 856,525 856,522 856,522 L 850,522 844,534 853,528 Z M 844,534 C 841,531 841,534 844,534 Z M 910,447 L 907,447 901,453 910,453 910,447 Z M 847,519 L 865,504 C 868,501 868,498 868,495 L 859,495 823,528 817,540 838,522 847,519 Z"/>
         </clipPath>
        </defs>
        <g clip-path="url(#clip_path_1)">
         <path fill="rgb(45,56,138)" stroke="none" d="M 796,445 L 870,445 870,540 796,540 796,445 Z"/>
         <path fill="rgb(36,80,158)" stroke="none" d="M 827,445 L 901,445 901,540 827,540 827,445 Z"/>
         <path fill="rgb(27,103,178)" stroke="none" d="M 859,445 L 933,445 933,540 859,540 859,445 Z"/>
         <path fill="rgb(18,127,199)" stroke="none" d="M 891,445 L 965,445 965,540 891,540 891,445 Z"/>
         <path fill="rgb(9,150,219)" stroke="none" d="M 923,445 L 997,445 997,540 923,540 923,445 Z"/>
        </g>
        <defs>
         <clipPath id="clip_path_2" clipPathUnits="userSpaceOnUse">
          <path d="M 619,755 C 620,749 622,744 625,739 629,732 634,727 640,722 L 667,704 682,686 703,665 715,654 727,645 C 727,645 727,644 727,644 736,639 743,633 748,624 749,622 750,620 751,618 L 763,603 C 775,591 784,579 792,565 792,564 793,564 793,564 L 799,555 808,549 802,540 814,525 C 838,507 856,483 880,465 L 889,456 C 889,455 890,453 891,452 891,451 892,449 893,448 886,453 878,454 871,459 870,459 869,460 868,460 866,461 864,463 863,465 862,467 862,468 862,471 862,471 862,471 862,471 838,468 829,486 817,498 L 817,522 C 814,523 811,525 808,526 792,536 779,548 769,564 721,567 721,627 679,639 L 676,639 C 676,639 675,640 675,642 675,643 676,644 676,645 667,645 661,651 664,659 L 658,674 C 637,686 640,707 628,725 604,740 595,770 577,791 L 586,806 592,800 C 601,786 609,774 619,761 L 619,755 Z M 903,438 C 900,443 897,446 893,448 896,444 899,441 903,438 Z M 904,438 L 928,426 940,426 C 942,425 943,424 945,423 952,420 957,415 960,408 L 960,402 C 961,400 962,399 963,397 972,381 984,370 999,360 L 1023,345 1029,339 1041,327 1055,320 1044,324 1002,354 C 984,369 960,372 948,396 L 957,396 C 937,402 916,411 907,432 906,434 905,436 903,438 903,438 904,438 904,438 Z M 1071,312 L 1077,312 1055,320 1071,312 Z M 1942,112 L 1960,118 1966,118 C 1976,123 1985,125 1996,125 2000,125 2004,125 2008,124 2016,123 2022,122 2030,122 2042,122 2053,123 2065,127 L 2101,127 C 2104,126 2106,126 2109,126 2117,126 2124,128 2130,132 2133,133 2135,134 2137,136 2137,136 2137,137 2137,137 2137,138 2137,138 2137,139 L 2125,139 C 2124,139 2124,140 2124,140 2124,141 2124,141 2125,142 L 2146,142 C 2152,139 2158,138 2165,138 2166,138 2167,138 2167,138 2130,122 2095,115 2053,115 2051,115 2049,115 2047,115 L 2023,115 C 1994,106 1968,102 1937,102 1929,102 1923,102 1915,103 L 1921,103 1942,112 Z M 2184,142 C 2187,142 2188,142 2188,143 2184,142 2180,142 2175,142 2173,141 2170,139 2167,138 2173,139 2179,140 2184,142 Z M 2190,148 L 2198,151 C 2195,147 2192,145 2188,143 2189,144 2189,146 2190,148 Z M 2205,154 L 2199,154 C 2199,153 2198,152 2198,151 L 2205,154 Z M 2385,220 C 2387,222 2388,223 2391,224 2395,227 2399,228 2404,228 2408,228 2411,227 2415,226 L 2433,226 C 2429,222 2425,220 2420,217 2407,209 2394,206 2379,205 L 2358,199 2373,208 2385,220 Z M 2283,181 C 2283,184 2286,187 2289,190 L 2295,190 2310,181 C 2309,180 2308,179 2307,179 2291,170 2277,165 2259,163 L 2280,175 2283,181 Z M 2505,262 L 2529,277 C 2523,268 2517,262 2505,262 Z"/>
         </clipPath>
        </defs>
        <g clip-path="url(#clip_path_2)">
         <path fill="rgb(45,56,138)" stroke="none" d="M 556,102 L 631,102 631,806 556,806 556,102 Z"/>
         <path fill="rgb(44,58,140)" stroke="none" d="M 588,102 L 663,102 663,806 588,806 588,102 Z"/>
         <path fill="rgb(44,60,141)" stroke="none" d="M 620,102 L 695,102 695,806 620,806 620,102 Z"/>
         <path fill="rgb(43,62,143)" stroke="none" d="M 652,102 L 727,102 727,806 652,806 652,102 Z"/>
         <path fill="rgb(42,64,145)" stroke="none" d="M 684,102 L 759,102 759,806 684,806 684,102 Z"/>
         <path fill="rgb(41,66,146)" stroke="none" d="M 716,102 L 790,102 790,806 716,806 716,102 Z"/>
         <path fill="rgb(41,68,148)" stroke="none" d="M 748,102 L 822,102 822,806 748,806 748,102 Z"/>
         <path fill="rgb(40,70,150)" stroke="none" d="M 780,102 L 854,102 854,806 780,806 780,102 Z"/>
         <path fill="rgb(39,71,151)" stroke="none" d="M 812,102 L 886,102 886,806 812,806 812,102 Z"/>
         <path fill="rgb(38,73,153)" stroke="none" d="M 844,102 L 918,102 918,806 844,806 844,102 Z"/>
         <path fill="rgb(38,75,155)" stroke="none" d="M 876,102 L 950,102 950,806 876,806 876,102 Z"/>
         <path fill="rgb(37,77,156)" stroke="none" d="M 908,102 L 982,102 982,806 908,806 908,102 Z"/>
         <path fill="rgb(36,79,158)" stroke="none" d="M 940,102 L 1014,102 1014,806 940,806 940,102 Z"/>
         <path fill="rgb(35,81,160)" stroke="none" d="M 972,102 L 1046,102 1046,806 972,806 972,102 Z"/>
         <path fill="rgb(35,83,161)" stroke="none" d="M 1004,102 L 1078,102 1078,806 1004,806 1004,102 Z"/>
         <path fill="rgb(34,85,163)" stroke="none" d="M 1036,102 L 1110,102 1110,806 1036,806 1036,102 Z"/>
         <path fill="rgb(33,87,164)" stroke="none" d="M 1068,102 L 1142,102 1142,806 1068,806 1068,102 Z"/>
         <path fill="rgb(32,89,166)" stroke="none" d="M 1100,102 L 1174,102 1174,806 1100,806 1100,102 Z"/>
         <path fill="rgb(32,91,168)" stroke="none" d="M 1132,102 L 1206,102 1206,806 1132,806 1132,102 Z"/>
         <path fill="rgb(31,93,169)" stroke="none" d="M 1164,102 L 1238,102 1238,806 1164,806 1164,102 Z"/>
         <path fill="rgb(30,95,171)" stroke="none" d="M 1196,102 L 1270,102 1270,806 1196,806 1196,102 Z"/>
         <path fill="rgb(30,97,173)" stroke="none" d="M 1228,102 L 1302,102 1302,806 1228,806 1228,102 Z"/>
         <path fill="rgb(29,99,174)" stroke="none" d="M 1260,102 L 1334,102 1334,806 1260,806 1260,102 Z"/>
         <path fill="rgb(28,100,176)" stroke="none" d="M 1292,102 L 1366,102 1366,806 1292,806 1292,102 Z"/>
         <path fill="rgb(27,102,178)" stroke="none" d="M 1324,102 L 1398,102 1398,806 1324,806 1324,102 Z"/>
         <path fill="rgb(27,104,179)" stroke="none" d="M 1356,102 L 1430,102 1430,806 1356,806 1356,102 Z"/>
         <path fill="rgb(26,106,181)" stroke="none" d="M 1388,102 L 1462,102 1462,806 1388,806 1388,102 Z"/>
         <path fill="rgb(25,108,183)" stroke="none" d="M 1420,102 L 1494,102 1494,806 1420,806 1420,102 Z"/>
         <path fill="rgb(24,110,184)" stroke="none" d="M 1452,102 L 1526,102 1526,806 1452,806 1452,102 Z"/>
         <path fill="rgb(24,112,186)" stroke="none" d="M 1484,102 L 1558,102 1558,806 1484,806 1484,102 Z"/>
         <path fill="rgb(23,114,188)" stroke="none" d="M 1516,102 L 1590,102 1590,806 1516,806 1516,102 Z"/>
         <path fill="rgb(22,116,189)" stroke="none" d="M 1548,102 L 1622,102 1622,806 1548,806 1548,102 Z"/>
         <path fill="rgb(21,118,191)" stroke="none" d="M 1580,102 L 1654,102 1654,806 1580,806 1580,102 Z"/>
         <path fill="rgb(21,120,193)" stroke="none" d="M 1612,102 L 1686,102 1686,806 1612,806 1612,102 Z"/>
         <path fill="rgb(20,122,194)" stroke="none" d="M 1644,102 L 1718,102 1718,806 1644,806 1644,102 Z"/>
         <path fill="rgb(19,124,196)" stroke="none" d="M 1676,102 L 1750,102 1750,806 1676,806 1676,102 Z"/>
         <path fill="rgb(18,126,198)" stroke="none" d="M 1708,102 L 1782,102 1782,806 1708,806 1708,102 Z"/>
         <path fill="rgb(18,128,199)" stroke="none" d="M 1740,102 L 1814,102 1814,806 1740,806 1740,102 Z"/>
         <path fill="rgb(17,130,201)" stroke="none" d="M 1772,102 L 1846,102 1846,806 1772,806 1772,102 Z"/>
         <path fill="rgb(16,131,203)" stroke="none" d="M 1804,102 L 1878,102 1878,806 1804,806 1804,102 Z"/>
         <path fill="rgb(15,133,204)" stroke="none" d="M 1836,102 L 1910,102 1910,806 1836,806 1836,102 Z"/>
         <path fill="rgb(15,135,206)" stroke="none" d="M 1868,102 L 1942,102 1942,806 1868,806 1868,102 Z"/>
         <path fill="rgb(14,137,208)" stroke="none" d="M 1900,102 L 1974,102 1974,806 1900,806 1900,102 Z"/>
         <path fill="rgb(13,139,209)" stroke="none" d="M 1932,102 L 2006,102 2006,806 1932,806 1932,102 Z"/>
         <path fill="rgb(13,141,211)" stroke="none" d="M 1964,102 L 2038,102 2038,806 1964,806 1964,102 Z"/>
         <path fill="rgb(12,143,213)" stroke="none" d="M 1996,102 L 2070,102 2070,806 1996,806 1996,102 Z"/>
         <path fill="rgb(11,145,214)" stroke="none" d="M 2028,102 L 2102,102 2102,806 2028,806 2028,102 Z"/>
         <path fill="rgb(10,147,216)" stroke="none" d="M 2060,102 L 2134,102 2134,806 2060,806 2060,102 Z"/>
         <path fill="rgb(10,149,217)" stroke="none" d="M 2092,102 L 2166,102 2166,806 2092,806 2092,102 Z"/>
         <path fill="rgb(9,151,219)" stroke="none" d="M 2124,102 L 2198,102 2198,806 2124,806 2124,102 Z"/>
         <path fill="rgb(8,153,221)" stroke="none" d="M 2156,102 L 2230,102 2230,806 2156,806 2156,102 Z"/>
         <path fill="rgb(7,155,222)" stroke="none" d="M 2188,102 L 2262,102 2262,806 2188,806 2188,102 Z"/>
         <path fill="rgb(7,157,224)" stroke="none" d="M 2220,102 L 2294,102 2294,806 2220,806 2220,102 Z"/>
         <path fill="rgb(6,159,226)" stroke="none" d="M 2251,102 L 2326,102 2326,806 2251,806 2251,102 Z"/>
         <path fill="rgb(5,160,227)" stroke="none" d="M 2283,102 L 2358,102 2358,806 2283,806 2283,102 Z"/>
         <path fill="rgb(4,162,229)" stroke="none" d="M 2315,102 L 2390,102 2390,806 2315,806 2315,102 Z"/>
         <path fill="rgb(4,164,231)" stroke="none" d="M 2347,102 L 2422,102 2422,806 2347,806 2347,102 Z"/>
         <path fill="rgb(3,166,232)" stroke="none" d="M 2379,102 L 2454,102 2454,806 2379,806 2379,102 Z"/>
         <path fill="rgb(2,168,234)" stroke="none" d="M 2411,102 L 2486,102 2486,806 2411,806 2411,102 Z"/>
         <path fill="rgb(1,170,236)" stroke="none" d="M 2443,102 L 2518,102 2518,806 2443,806 2443,102 Z"/>
         <path fill="rgb(1,172,237)" stroke="none" d="M 2475,102 L 2550,102 2550,806 2475,806 2475,102 Z"/>
        </g>
        <defs>
         <clipPath id="clip_path_3" clipPathUnits="userSpaceOnUse">
          <path d="M 3310,2242 L 3328,2197 C 3334,2182 3346,2143 3351,2120 3353,2113 3354,2109 3357,2103 3358,2102 3359,2100 3360,2099 L 3363,2099 3363,2066 C 3378,2063 3375,2048 3378,2039 L 3402,1898 C 3410,1866 3414,1838 3414,1805 3414,1772 3410,1745 3402,1713 3403,1710 3403,1707 3403,1704 3403,1693 3401,1685 3395,1676 3393,1671 3391,1668 3387,1665 L 3387,1536 C 3378,1509 3396,1479 3375,1455 L 3351,1360 C 3352,1359 3352,1358 3352,1357 3352,1356 3352,1355 3351,1354 L 3346,1336 C 3345,1334 3344,1332 3344,1330 3344,1328 3345,1326 3346,1324 L 3349,1324 C 3357,1324 3357,1309 3357,1297 3356,1285 3352,1276 3346,1266 3346,1265 3346,1264 3346,1264 L 3337,1252 C 3336,1251 3335,1250 3335,1249 3332,1244 3330,1239 3330,1233 3330,1232 3331,1232 3331,1231 3331,1227 3331,1224 3331,1221 3331,1203 3329,1188 3325,1171 L 3325,1153 C 3319,1132 3313,1108 3307,1087 L 3301,1072 C 3300,1071 3299,1070 3298,1068 3293,1059 3290,1050 3289,1039 3287,1031 3284,1024 3280,1016 3280,1016 3280,1016 3280,1016 L 3262,986 C 3260,984 3259,984 3258,983 3254,981 3250,980 3246,980 3245,980 3244,980 3244,980 L 3241,980 3241,971 3235,971 3235,947 3232,947 3232,941 C 3232,940 3232,940 3232,939 3232,939 3232,938 3232,938 L 3232,932 C 3235,926 3235,923 3229,917 3225,913 3223,910 3220,905 3219,903 3218,901 3217,899 L 3211,881 C 3209,874 3206,868 3203,862 3199,855 3195,850 3190,845 3185,840 3181,836 3178,830 3177,828 3176,826 3175,824 L 3154,776 C 3152,771 3150,767 3147,762 3144,756 3140,752 3136,746 L 3118,722 C 3116,720 3115,717 3113,715 3110,709 3108,704 3106,698 L 3100,689 C 3100,689 3099,688 3099,688 3097,685 3097,682 3097,679 3097,677 3097,676 3097,674 3097,672 3097,669 3095,667 3094,665 3093,664 3091,662 L 3079,654 3079,659 C 3082,665 3079,668 3076,668 L 3070,668 3079,698 3086,710 C 3083,706 3080,703 3075,701 3070,697 3064,696 3058,695 L 3058,674 C 3049,639 3010,636 2992,612 2992,610 2991,608 2990,606 2986,599 2981,594 2973,590 2969,587 2965,586 2959,585 L 2936,558 C 2909,520 2881,493 2843,468 L 2819,450 2807,441 C 2786,420 2777,387 2741,387 L 2717,372 2690,351 C 2689,349 2688,347 2687,345 2681,335 2673,327 2663,321 2654,316 2646,313 2636,312 2628,305 2620,299 2610,293 2596,285 2583,280 2567,277 L 2573,283 2588,294 2627,315 C 2630,317 2631,318 2634,319 2656,332 2673,345 2690,363 2703,376 2715,385 2730,393 2732,394 2733,395 2735,396 L 2753,411 C 2756,414 2759,417 2756,420 L 2753,420 2726,411 C 2707,407 2691,402 2673,392 2671,390 2669,389 2666,387 L 2630,369 2591,348 2585,348 C 2576,345 2573,336 2561,333 L 2538,327 2463,312 C 2461,311 2459,311 2457,309 2448,305 2442,299 2436,291 2427,291 2420,289 2412,285 2411,284 2410,283 2409,283 L 2379,271 C 2349,265 2324,257 2295,247 L 2277,241 2247,232 2232,232 2226,223 2226,220 2178,220 2160,205 2148,211 2137,217 2131,217 2104,202 C 2086,220 2071,196 2056,199 L 2026,190 C 2020,193 2014,195 2008,195 2001,195 1996,193 1990,190 L 1954,190 C 1952,189 1950,189 1948,188 1945,186 1943,184 1941,181 1940,178 1939,175 1939,172 1939,172 1939,172 1939,172 L 1948,166 1966,166 C 1966,166 1966,166 1966,166 1968,169 1969,172 1969,175 1969,181 1975,181 1984,181 L 1990,181 1978,163 C 1977,162 1975,161 1974,160 1968,157 1963,156 1957,156 1954,156 1951,156 1948,157 L 1918,166 1915,166 C 1924,172 1921,175 1921,181 L 1873,181 1861,175 1837,163 1834,163 1813,157 1745,157 1756,151 1780,145 1789,145 1840,136 1873,130 1891,124 1858,124 C 1841,120 1825,119 1807,119 1789,119 1774,120 1756,124 L 1718,124 1616,121 C 1574,124 1532,121 1499,157 1424,145 1358,178 1293,211 L 1227,238 C 1200,241 1178,249 1155,262 1140,271 1128,280 1116,291 L 1125,291 1140,283 1164,268 1203,250 1233,244 C 1237,241 1241,238 1245,236 1261,227 1275,221 1293,217 L 1320,208 1326,208 C 1329,214 1341,208 1346,208 L 1352,208 C 1355,208 1355,211 1352,211 L 1335,223 1364,214 1388,208 1349,229 1311,241 C 1308,241 1306,242 1304,243 1300,246 1296,250 1293,254 1293,255 1293,255 1293,256 L 1284,271 1293,271 1305,265 C 1308,259 1313,255 1319,251 1323,249 1327,248 1332,247 L 1376,232 1391,232 C 1392,231 1392,231 1393,231 1393,231 1394,231 1395,232 1395,232 1395,232 1396,233 1396,233 1396,234 1396,235 1396,235 1396,236 1396,236 1395,237 1395,237 1395,238 1394,238 1394,238 1394,238 1388,244 1376,247 1370,253 L 1376,253 1281,280 1167,327 C 1158,335 1151,341 1141,346 1127,355 1114,360 1098,363 1088,373 1078,380 1065,387 1059,391 1054,393 1047,396 L 1023,402 C 1023,404 1022,405 1021,407 1017,414 1012,419 1005,423 998,427 992,429 984,429 L 975,444 C 966,458 955,468 940,477 940,477 940,477 940,477 L 937,477 937,474 931,480 925,486 895,492 880,492 868,507 C 865,510 865,513 868,513 L 871,513 C 853,531 841,555 817,564 L 778,609 C 760,645 724,656 700,686 676,716 658,803 583,815 L 577,806 571,821 C 570,827 567,832 564,838 563,840 561,843 559,845 553,855 547,863 542,874 535,886 529,896 524,908 521,912 520,915 520,920 520,921 520,922 521,923 521,924 521,924 521,925 521,933 519,939 515,946 515,946 515,946 515,947 L 500,980 506,980 C 515,980 515,989 518,998 L 542,965 C 542,964 542,964 542,963 547,955 552,949 559,944 561,943 562,943 563,942 572,936 579,930 585,920 585,919 586,918 586,917 L 595,908 607,896 625,863 631,863 C 634,866 634,866 637,863 L 643,851 658,851 658,875 673,860 C 675,858 675,855 675,852 675,850 675,847 673,845 673,845 673,844 673,844 673,842 674,840 675,838 675,837 676,837 676,836 678,834 680,831 682,828 683,826 684,824 685,821 686,817 687,814 689,811 693,805 697,800 703,797 705,796 707,795 709,794 L 718,788 727,779 C 736,773 742,766 747,757 749,754 750,752 751,749 L 745,740 C 745,737 748,731 751,728 L 766,728 784,704 802,695 808,695 C 743,766 694,830 643,911 630,931 620,948 608,969 555,1061 518,1144 485,1246 L 470,1246 455,1234 C 449,1228 452,1213 443,1207 L 446,1207 C 455,1192 443,1171 455,1156 467,1141 458,1114 428,1120 398,1126 383,1135 389,1165 395,1195 359,1219 356,1252 353,1285 341,1267 347,1279 L 347,1396 C 350,1419 332,1449 371,1458 L 410,1485 C 413,1500 395,1533 437,1524 431,1577 428,1621 428,1674 428,1703 430,1731 431,1760 428,1748 428,1736 425,1722 L 416,1731 416,1725 401,1725 C 401,1740 398,1749 389,1752 387,1756 386,1760 386,1764 386,1765 386,1766 386,1767 386,1770 389,1775 392,1772 395,1770 404,1778 413,1784 422,1790 407,1793 401,1790 395,1787 395,1793 395,1799 L 395,1808 410,1853 C 410,1862 407,1871 407,1880 407,1889 409,1896 413,1904 L 404,1904 404,1895 383,1889 383,1871 C 383,1869 384,1866 384,1864 384,1861 383,1859 383,1856 379,1838 376,1822 374,1802 369,1774 367,1750 367,1722 367,1713 368,1706 368,1698 368,1697 368,1696 368,1695 368,1691 369,1687 371,1683 L 371,1689 C 372,1694 373,1698 374,1704 374,1704 374,1704 374,1704 374,1708 375,1712 377,1716 380,1722 383,1728 389,1728 395,1728 392,1725 392,1722 391,1716 391,1712 389,1707 384,1694 381,1682 380,1668 379,1662 377,1657 374,1652 373,1650 372,1649 371,1647 367,1639 365,1632 365,1623 365,1622 365,1621 365,1620 L 365,1596 C 365,1587 368,1578 368,1569 368,1568 368,1567 368,1566 368,1564 368,1561 366,1559 366,1558 365,1558 365,1557 L 362,1557 C 338,1569 341,1563 332,1605 L 332,1659 C 332,1680 329,1701 332,1722 332,1724 332,1726 332,1728 332,1750 334,1769 338,1790 L 338,1790 C 338,1793 339,1795 339,1798 339,1801 338,1803 338,1805 338,1807 338,1808 338,1809 338,1817 339,1824 341,1832 L 341,1832 C 343,1844 344,1854 344,1865 344,1867 344,1869 344,1871 344,1875 343,1879 343,1883 343,1897 345,1909 350,1922 350,1924 350,1926 350,1928 350,1930 350,1932 350,1934 350,1936 350,1937 350,1938 350,1945 351,1951 353,1958 356,1967 358,1975 359,1985 362,2008 367,2028 374,2051 377,2061 379,2070 380,2081 381,2087 383,2092 386,2097 387,2099 388,2100 389,2102 391,2104 392,2106 393,2109 399,2118 402,2127 404,2138 406,2148 409,2157 413,2167 L 425,2209 C 429,2226 434,2239 442,2253 442,2254 443,2254 443,2254 454,2275 461,2294 467,2317 L 473,2332 C 476,2335 478,2339 480,2343 484,2349 486,2355 488,2362 489,2368 491,2373 494,2378 496,2381 497,2383 500,2386 500,2387 501,2388 502,2389 504,2393 505,2396 506,2401 509,2410 512,2413 518,2410 L 521,2410 521,2437 536,2467 550,2497 583,2532 595,2544 C 604,2553 616,2559 622,2574 L 634,2583 C 637,2585 639,2587 641,2590 642,2593 643,2595 643,2598 L 649,2619 C 651,2622 652,2625 654,2628 658,2635 662,2640 667,2646 L 679,2652 688,2652 C 689,2652 689,2652 689,2653 690,2653 691,2654 691,2655 692,2656 692,2657 692,2658 692,2659 692,2660 691,2661 691,2661 691,2661 691,2661 691,2664 691,2666 691,2669 691,2671 691,2673 691,2676 692,2678 692,2680 693,2681 696,2686 699,2689 703,2691 L 709,2691 C 721,2688 733,2697 745,2712 L 748,2712 C 748,2709 751,2709 748,2706 L 748,2700 C 748,2697 751,2694 754,2697 757,2699 759,2701 760,2704 762,2707 763,2710 763,2714 763,2714 763,2715 763,2715 L 763,2721 C 765,2734 769,2745 775,2757 790,2766 790,2766 790,2760 790,2754 790,2754 796,2754 L 808,2754 814,2763 838,2778 C 859,2802 892,2799 916,2814 L 966,2865 972,2865 C 974,2868 976,2872 978,2875 986,2889 996,2899 1009,2907 1013,2909 1016,2911 1020,2912 1024,2918 1028,2922 1034,2925 1039,2928 1044,2930 1050,2930 1050,2945 1068,2948 1083,2951 1086,2954 1089,2957 1092,2959 1097,2961 1102,2963 1107,2963 L 1113,2963 C 1117,2967 1120,2970 1124,2972 1132,2977 1140,2979 1150,2979 1153,2979 1155,2979 1158,2978 L 1185,3002 1257,3029 1257,3035 C 1272,3068 1308,3056 1332,3065 L 1364,3077 1376,3077 C 1412,3086 1448,3104 1487,3092 1487,3094 1486,3096 1486,3098 1486,3100 1487,3102 1487,3104 1520,3125 1559,3104 1595,3116 1605,3120 1614,3121 1625,3121 1632,3121 1639,3121 1646,3119 L 1649,3119 1673,3125 1682,3125 1709,3131 1718,3131 C 1720,3129 1722,3129 1725,3129 1728,3129 1730,3129 1733,3131 1748,3137 1761,3140 1777,3143 L 1795,3143 C 1799,3141 1802,3140 1806,3140 1810,3140 1813,3141 1816,3143 L 1933,3143 C 1938,3143 1943,3144 1948,3144 1960,3144 1969,3142 1981,3140 L 2011,3140 2026,3134 2125,3134 2143,3128 2157,3119 2223,3119 2223,3137 2184,3137 2148,3143 C 2137,3146 2128,3143 2119,3146 2109,3150 2100,3152 2090,3152 2089,3152 2089,3152 2089,3152 L 2050,3161 2038,3161 C 2032,3160 2027,3159 2021,3159 2011,3159 2003,3161 1993,3164 L 1939,3164 C 1935,3166 1930,3167 1926,3167 1921,3167 1917,3166 1912,3164 L 1777,3164 C 1775,3163 1773,3163 1770,3163 1763,3163 1757,3165 1751,3168 1748,3170 1747,3171 1745,3173 L 1736,3173 1727,3167 1727,3158 1691,3158 C 1678,3152 1666,3150 1652,3149 L 1577,3149 1556,3143 1541,3137 1478,3125 1463,3125 1448,3119 1385,3098 1344,3086 1278,3086 C 1275,3086 1275,3089 1275,3092 L 1281,3092 C 1320,3107 1358,3119 1397,3137 L 1406,3137 1433,3143 1475,3155 1514,3155 1532,3161 1553,3170 1604,3179 1637,3185 1670,3191 1694,3191 1718,3197 1810,3197 1840,3203 1909,3203 1939,3197 2005,3197 C 2017,3197 2023,3194 2026,3188 L 2056,3188 C 2057,3188 2057,3188 2058,3188 2064,3188 2068,3187 2073,3184 2076,3182 2078,3181 2079,3179 2077,3182 2080,3182 2083,3185 L 2095,3185 2095,3179 C 2095,3176 2095,3176 2101,3173 2107,3170 2119,3170 2122,3176 L 2134,3176 2143,3170 C 2148,3170 2148,3170 2148,3173 L 2169,3173 2184,3167 2208,3155 C 2211,3164 2220,3167 2247,3161 L 2286,3149 2322,3149 C 2349,3146 2382,3149 2403,3128 L 2409,3128 2421,3119 2454,3110 C 2474,3106 2490,3099 2508,3089 2510,3088 2512,3087 2514,3086 L 2526,3080 2529,3080 2555,3062 2567,3056 2582,3050 2594,3050 C 2606,3047 2606,3047 2609,3038 2612,3029 2609,3035 2603,3035 L 2600,3035 2612,3020 2618,3020 C 2627,3017 2633,3014 2639,3017 L 2645,3017 C 2649,3016 2651,3015 2654,3013 2660,3010 2665,3005 2668,2999 2670,2996 2671,2994 2672,2990 2681,2978 2705,2984 2711,2966 L 2840,2874 C 2873,2871 2882,2841 2906,2823 2930,2805 2974,2790 2995,2757 L 3022,2745 3025,2745 C 3028,2745 3030,2746 3032,2746 3038,2746 3043,2744 3047,2742 3052,2739 3056,2736 3058,2731 3060,2729 3061,2726 3061,2724 L 3061,2736 C 3085,2724 3115,2745 3139,2721 3163,2697 3139,2640 3169,2607 L 3190,2592 C 3190,2592 3190,2591 3191,2591 3214,2550 3227,2513 3235,2467 L 3241,2461 C 3241,2452 3241,2440 3253,2434 3256,2431 3258,2429 3259,2426 3262,2422 3263,2417 3263,2412 3263,2408 3262,2403 3259,2399 3259,2399 3259,2398 3259,2398 L 3253,2398 C 3254,2396 3254,2395 3254,2393 3254,2392 3254,2390 3253,2389 3274,2389 3277,2368 3289,2359 L 3289,2317 C 3288,2316 3288,2315 3288,2314 3288,2313 3288,2312 3289,2311 3290,2304 3291,2298 3292,2290 L 3310,2242 Z M 3109,740 L 3106,740 3100,734 3094,728 C 3093,724 3092,720 3090,715 L 3109,740 Z"/>
         </clipPath>
        </defs>
        <g clip-path="url(#clip_path_3)">
         <path fill="rgb(45,56,138)" stroke="none" d="M 310,118 L 384,118 384,3203 310,3203 310,118 Z"/>
         <path fill="rgb(45,57,139)" stroke="none" d="M 341,118 L 415,118 415,3203 341,3203 341,118 Z"/>
         <path fill="rgb(44,58,140)" stroke="none" d="M 373,118 L 447,118 447,3203 373,3203 373,118 Z"/>
         <path fill="rgb(44,60,141)" stroke="none" d="M 405,118 L 479,118 479,3203 405,3203 405,118 Z"/>
         <path fill="rgb(43,61,142)" stroke="none" d="M 437,118 L 511,118 511,3203 437,3203 437,118 Z"/>
         <path fill="rgb(43,62,143)" stroke="none" d="M 468,118 L 543,118 543,3203 468,3203 468,118 Z"/>
         <path fill="rgb(42,63,144)" stroke="none" d="M 500,118 L 574,118 574,3203 500,3203 500,118 Z"/>
         <path fill="rgb(42,65,145)" stroke="none" d="M 532,118 L 606,118 606,3203 532,3203 532,118 Z"/>
         <path fill="rgb(41,66,146)" stroke="none" d="M 564,118 L 638,118 638,3203 564,3203 564,118 Z"/>
         <path fill="rgb(41,67,147)" stroke="none" d="M 596,118 L 670,118 670,3203 596,3203 596,118 Z"/>
         <path fill="rgb(40,68,148)" stroke="none" d="M 627,118 L 701,118 701,3203 627,3203 627,118 Z"/>
         <path fill="rgb(40,69,149)" stroke="none" d="M 659,118 L 733,118 733,3203 659,3203 659,118 Z"/>
         <path fill="rgb(39,71,150)" stroke="none" d="M 691,118 L 765,118 765,3203 691,3203 691,118 Z"/>
         <path fill="rgb(39,72,152)" stroke="none" d="M 723,118 L 797,118 797,3203 723,3203 723,118 Z"/>
         <path fill="rgb(39,73,153)" stroke="none" d="M 755,118 L 829,118 829,3203 755,3203 755,118 Z"/>
         <path fill="rgb(38,74,154)" stroke="none" d="M 786,118 L 860,118 860,3203 786,3203 786,118 Z"/>
         <path fill="rgb(38,75,155)" stroke="none" d="M 818,118 L 892,118 892,3203 818,3203 818,118 Z"/>
         <path fill="rgb(37,77,156)" stroke="none" d="M 850,118 L 924,118 924,3203 850,3203 850,118 Z"/>
         <path fill="rgb(37,78,157)" stroke="none" d="M 882,118 L 956,118 956,3203 882,3203 882,118 Z"/>
         <path fill="rgb(36,79,158)" stroke="none" d="M 913,118 L 988,118 988,3203 913,3203 913,118 Z"/>
         <path fill="rgb(36,80,159)" stroke="none" d="M 945,118 L 1019,118 1019,3203 945,3203 945,118 Z"/>
         <path fill="rgb(35,82,160)" stroke="none" d="M 977,118 L 1051,118 1051,3203 977,3203 977,118 Z"/>
         <path fill="rgb(35,83,161)" stroke="none" d="M 1009,118 L 1083,118 1083,3203 1009,3203 1009,118 Z"/>
         <path fill="rgb(34,84,162)" stroke="none" d="M 1041,118 L 1115,118 1115,3203 1041,3203 1041,118 Z"/>
         <path fill="rgb(34,85,163)" stroke="none" d="M 1072,118 L 1146,118 1146,3203 1072,3203 1072,118 Z"/>
         <path fill="rgb(33,86,164)" stroke="none" d="M 1104,118 L 1178,118 1178,3203 1104,3203 1104,118 Z"/>
         <path fill="rgb(33,88,165)" stroke="none" d="M 1136,118 L 1210,118 1210,3203 1136,3203 1136,118 Z"/>
         <path fill="rgb(32,89,166)" stroke="none" d="M 1168,118 L 1242,118 1242,3203 1168,3203 1168,118 Z"/>
         <path fill="rgb(32,90,167)" stroke="none" d="M 1200,118 L 1274,118 1274,3203 1200,3203 1200,118 Z"/>
         <path fill="rgb(32,91,168)" stroke="none" d="M 1231,118 L 1305,118 1305,3203 1231,3203 1231,118 Z"/>
         <path fill="rgb(31,92,169)" stroke="none" d="M 1263,118 L 1337,118 1337,3203 1263,3203 1263,118 Z"/>
         <path fill="rgb(31,94,170)" stroke="none" d="M 1295,118 L 1369,118 1369,3203 1295,3203 1295,118 Z"/>
         <path fill="rgb(30,95,171)" stroke="none" d="M 1327,118 L 1401,118 1401,3203 1327,3203 1327,118 Z"/>
         <path fill="rgb(30,96,172)" stroke="none" d="M 1358,118 L 1433,118 1433,3203 1358,3203 1358,118 Z"/>
         <path fill="rgb(29,97,173)" stroke="none" d="M 1390,118 L 1464,118 1464,3203 1390,3203 1390,118 Z"/>
         <path fill="rgb(29,99,174)" stroke="none" d="M 1422,118 L 1496,118 1496,3203 1422,3203 1422,118 Z"/>
         <path fill="rgb(28,100,175)" stroke="none" d="M 1454,118 L 1528,118 1528,3203 1454,3203 1454,118 Z"/>
         <path fill="rgb(28,101,177)" stroke="none" d="M 1486,118 L 1560,118 1560,3203 1486,3203 1486,118 Z"/>
         <path fill="rgb(27,102,178)" stroke="none" d="M 1517,118 L 1591,118 1591,3203 1517,3203 1517,118 Z"/>
         <path fill="rgb(27,103,179)" stroke="none" d="M 1549,118 L 1623,118 1623,3203 1549,3203 1549,118 Z"/>
         <path fill="rgb(26,105,180)" stroke="none" d="M 1581,118 L 1655,118 1655,3203 1581,3203 1581,118 Z"/>
         <path fill="rgb(26,106,181)" stroke="none" d="M 1613,118 L 1687,118 1687,3203 1613,3203 1613,118 Z"/>
         <path fill="rgb(26,107,182)" stroke="none" d="M 1645,118 L 1719,118 1719,3203 1645,3203 1645,118 Z"/>
         <path fill="rgb(25,108,183)" stroke="none" d="M 1676,118 L 1750,118 1750,3203 1676,3203 1676,118 Z"/>
         <path fill="rgb(25,110,184)" stroke="none" d="M 1708,118 L 1782,118 1782,3203 1708,3203 1708,118 Z"/>
         <path fill="rgb(24,111,185)" stroke="none" d="M 1740,118 L 1814,118 1814,3203 1740,3203 1740,118 Z"/>
         <path fill="rgb(24,112,186)" stroke="none" d="M 1772,118 L 1846,118 1846,3203 1772,3203 1772,118 Z"/>
         <path fill="rgb(23,113,187)" stroke="none" d="M 1803,118 L 1878,118 1878,3203 1803,3203 1803,118 Z"/>
         <path fill="rgb(23,114,188)" stroke="none" d="M 1835,118 L 1909,118 1909,3203 1835,3203 1835,118 Z"/>
         <path fill="rgb(22,116,189)" stroke="none" d="M 1867,118 L 1941,118 1941,3203 1867,3203 1867,118 Z"/>
         <path fill="rgb(22,117,190)" stroke="none" d="M 1899,118 L 1973,118 1973,3203 1899,3203 1899,118 Z"/>
         <path fill="rgb(21,118,191)" stroke="none" d="M 1931,118 L 2005,118 2005,3203 1931,3203 1931,118 Z"/>
         <path fill="rgb(21,119,192)" stroke="none" d="M 1962,118 L 2036,118 2036,3203 1962,3203 1962,118 Z"/>
         <path fill="rgb(20,120,193)" stroke="none" d="M 1994,118 L 2068,118 2068,3203 1994,3203 1994,118 Z"/>
         <path fill="rgb(20,122,194)" stroke="none" d="M 2026,118 L 2100,118 2100,3203 2026,3203 2026,118 Z"/>
         <path fill="rgb(19,123,195)" stroke="none" d="M 2058,118 L 2132,118 2132,3203 2058,3203 2058,118 Z"/>
         <path fill="rgb(19,124,196)" stroke="none" d="M 2090,118 L 2164,118 2164,3203 2090,3203 2090,118 Z"/>
         <path fill="rgb(19,125,197)" stroke="none" d="M 2121,118 L 2195,118 2195,3203 2121,3203 2121,118 Z"/>
         <path fill="rgb(18,127,198)" stroke="none" d="M 2153,118 L 2227,118 2227,3203 2153,3203 2153,118 Z"/>
         <path fill="rgb(18,128,199)" stroke="none" d="M 2185,118 L 2259,118 2259,3203 2185,3203 2185,118 Z"/>
         <path fill="rgb(17,129,200)" stroke="none" d="M 2217,118 L 2291,118 2291,3203 2217,3203 2217,118 Z"/>
         <path fill="rgb(17,130,202)" stroke="none" d="M 2248,118 L 2323,118 2323,3203 2248,3203 2248,118 Z"/>
         <path fill="rgb(16,131,203)" stroke="none" d="M 2280,118 L 2354,118 2354,3203 2280,3203 2280,118 Z"/>
         <path fill="rgb(16,133,204)" stroke="none" d="M 2312,118 L 2386,118 2386,3203 2312,3203 2312,118 Z"/>
         <path fill="rgb(15,134,205)" stroke="none" d="M 2344,118 L 2418,118 2418,3203 2344,3203 2344,118 Z"/>
         <path fill="rgb(15,135,206)" stroke="none" d="M 2376,118 L 2450,118 2450,3203 2376,3203 2376,118 Z"/>
         <path fill="rgb(14,136,207)" stroke="none" d="M 2407,118 L 2481,118 2481,3203 2407,3203 2407,118 Z"/>
         <path fill="rgb(14,138,208)" stroke="none" d="M 2439,118 L 2513,118 2513,3203 2439,3203 2439,118 Z"/>
         <path fill="rgb(13,139,209)" stroke="none" d="M 2471,118 L 2545,118 2545,3203 2471,3203 2471,118 Z"/>
         <path fill="rgb(13,140,210)" stroke="none" d="M 2503,118 L 2577,118 2577,3203 2503,3203 2503,118 Z"/>
         <path fill="rgb(13,141,211)" stroke="none" d="M 2535,118 L 2609,118 2609,3203 2535,3203 2535,118 Z"/>
         <path fill="rgb(12,142,212)" stroke="none" d="M 2566,118 L 2640,118 2640,3203 2566,3203 2566,118 Z"/>
         <path fill="rgb(12,144,213)" stroke="none" d="M 2598,118 L 2672,118 2672,3203 2598,3203 2598,118 Z"/>
         <path fill="rgb(11,145,214)" stroke="none" d="M 2630,118 L 2704,118 2704,3203 2630,3203 2630,118 Z"/>
         <path fill="rgb(11,146,215)" stroke="none" d="M 2662,118 L 2736,118 2736,3203 2662,3203 2662,118 Z"/>
         <path fill="rgb(10,147,216)" stroke="none" d="M 2693,118 L 2768,118 2768,3203 2693,3203 2693,118 Z"/>
         <path fill="rgb(10,148,217)" stroke="none" d="M 2725,118 L 2799,118 2799,3203 2725,3203 2725,118 Z"/>
         <path fill="rgb(9,150,218)" stroke="none" d="M 2757,118 L 2831,118 2831,3203 2757,3203 2757,118 Z"/>
         <path fill="rgb(9,151,219)" stroke="none" d="M 2789,118 L 2863,118 2863,3203 2789,3203 2789,118 Z"/>
         <path fill="rgb(8,152,220)" stroke="none" d="M 2821,118 L 2895,118 2895,3203 2821,3203 2821,118 Z"/>
         <path fill="rgb(8,153,221)" stroke="none" d="M 2852,118 L 2926,118 2926,3203 2852,3203 2852,118 Z"/>
         <path fill="rgb(7,155,222)" stroke="none" d="M 2884,118 L 2958,118 2958,3203 2884,3203 2884,118 Z"/>
         <path fill="rgb(7,156,223)" stroke="none" d="M 2916,118 L 2990,118 2990,3203 2916,3203 2916,118 Z"/>
         <path fill="rgb(6,157,224)" stroke="none" d="M 2948,118 L 3022,118 3022,3203 2948,3203 2948,118 Z"/>
         <path fill="rgb(6,158,225)" stroke="none" d="M 2979,118 L 3054,118 3054,3203 2979,3203 2979,118 Z"/>
         <path fill="rgb(6,159,227)" stroke="none" d="M 3011,118 L 3085,118 3085,3203 3011,3203 3011,118 Z"/>
         <path fill="rgb(5,161,228)" stroke="none" d="M 3043,118 L 3117,118 3117,3203 3043,3203 3043,118 Z"/>
         <path fill="rgb(5,162,229)" stroke="none" d="M 3075,118 L 3149,118 3149,3203 3075,3203 3075,118 Z"/>
         <path fill="rgb(4,163,230)" stroke="none" d="M 3107,118 L 3181,118 3181,3203 3107,3203 3107,118 Z"/>
         <path fill="rgb(4,164,231)" stroke="none" d="M 3138,118 L 3213,118 3213,3203 3138,3203 3138,118 Z"/>
         <path fill="rgb(3,165,232)" stroke="none" d="M 3170,118 L 3244,118 3244,3203 3170,3203 3170,118 Z"/>
         <path fill="rgb(3,167,233)" stroke="none" d="M 3202,118 L 3276,118 3276,3203 3202,3203 3202,118 Z"/>
         <path fill="rgb(2,168,234)" stroke="none" d="M 3234,118 L 3308,118 3308,3203 3234,3203 3234,118 Z"/>
         <path fill="rgb(2,169,235)" stroke="none" d="M 3266,118 L 3340,118 3340,3203 3266,3203 3266,118 Z"/>
         <path fill="rgb(1,170,236)" stroke="none" d="M 3297,118 L 3371,118 3371,3203 3297,3203 3297,118 Z"/>
         <path fill="rgb(1,172,237)" stroke="none" d="M 3329,118 L 3403,118 3403,3203 3329,3203 3329,118 Z"/>
         <path fill="rgb(0,173,238)" stroke="none" d="M 3361,118 L 3435,118 3435,3203 3361,3203 3361,118 Z"/>
        </g>
        <defs>
         <clipPath id="clip_path_4" clipPathUnits="userSpaceOnUse">
          <path d="M 1119,291 L 1110,297 1098,306 1113,300 1119,291 Z M 1302,232 L 1305,232 1314,226 1302,226 1302,232 Z M 1224,262 L 1221,265 1224,265 1224,262 Z M 604,797 L 592,809 598,809 C 598,809 598,809 598,809 600,808 602,807 603,805 604,803 604,801 604,799 604,798 604,798 604,797 Z M 694,692 C 695,691 696,689 698,687 700,683 702,679 703,674 697,678 692,683 688,689 685,692 685,695 688,695 L 694,692 Z M 658,737 L 658,731 C 652,731 643,740 634,740 L 634,746 C 643,755 646,752 658,737 Z M 2541,288 L 2544,288 2529,280 2541,288 Z M 2466,247 C 2481,244 2490,259 2502,262 L 2505,262 2496,256 2466,241 2433,226 2442,232 2466,247 Z M 2259,166 L 2256,166 2220,160 2235,160 2259,166 Z M 2358,199 C 2345,192 2333,188 2319,187 L 2358,199 Z M 2050,187 C 2051,186 2051,185 2052,184 2054,180 2055,176 2056,172 L 2041,172 2032,181 2044,190 2050,187 Z M 2193,196 C 2193,196 2193,197 2193,197 2193,198 2193,198 2193,199 L 2193,196 Z M 3525,1761 L 3525,1749 3534,1749 C 3537,1749 3540,1740 3537,1737 3534,1734 3534,1716 3528,1713 3528,1712 3527,1712 3527,1712 3525,1711 3524,1710 3523,1709 3522,1707 3522,1706 3522,1704 3522,1704 3522,1704 3522,1704 L 3528,1692 C 3528,1691 3528,1690 3528,1689 3528,1688 3528,1687 3528,1686 L 3522,1686 3516,1677 C 3513,1686 3510,1695 3504,1698 3504,1699 3504,1700 3504,1701 3504,1702 3504,1703 3504,1704 3504,1707 3504,1710 3501,1710 L 3498,1710 C 3498,1713 3497,1716 3495,1719 3494,1721 3492,1723 3491,1725 3487,1732 3485,1738 3483,1746 3483,1747 3483,1748 3483,1749 3483,1751 3483,1753 3484,1755 3485,1756 3485,1757 3486,1758 L 3489,1758 C 3487,1764 3486,1769 3486,1776 3486,1778 3486,1779 3486,1781 L 3486,1793 C 3486,1799 3485,1803 3483,1808 L 3480,1808 3468,1829 3468,1847 C 3468,1849 3469,1851 3469,1853 3469,1861 3467,1868 3463,1875 3461,1877 3461,1879 3459,1880 L 3453,1880 3447,1874 C 3447,1874 3447,1873 3446,1873 3444,1868 3443,1864 3443,1859 3443,1856 3443,1853 3444,1850 3447,1838 3448,1827 3448,1814 3448,1809 3448,1804 3447,1799 3447,1796 3444,1793 3444,1793 3444,1794 3444,1794 3443,1795 3442,1797 3441,1800 3441,1802 L 3441,1820 C 3441,1826 3438,1838 3432,1841 3426,1844 3429,1847 3429,1850 L 3423,1868 3432,1883 C 3426,1889 3420,1886 3417,1880 L 3417,1910 3426,1910 3426,1922 C 3421,1936 3418,1949 3417,1964 3417,1966 3417,1968 3417,1970 3417,1972 3417,1974 3417,1976 3417,1976 3417,1977 3417,1977 3417,1991 3416,2002 3411,2015 3411,2018 3411,2021 3411,2024 3411,2027 3411,2030 3411,2033 L 3402,2054 C 3400,2061 3397,2068 3393,2075 3393,2075 3393,2075 3393,2075 L 3384,2093 3357,2173 C 3366,2200 3346,2218 3334,2236 3334,2240 3334,2243 3334,2247 3334,2262 3331,2274 3323,2287 3319,2294 3315,2300 3310,2305 L 3310,2317 C 3310,2320 3313,2323 3319,2320 L 3331,2311 3337,2299 3343,2299 C 3346,2302 3349,2302 3354,2296 L 3360,2296 C 3362,2297 3362,2298 3363,2300 3365,2302 3365,2304 3365,2307 3365,2310 3365,2312 3363,2314 3361,2322 3360,2329 3360,2337 3360,2337 3360,2338 3360,2338 3360,2341 3360,2344 3363,2344 L 3369,2344 C 3372,2347 3375,2344 3378,2335 L 3384,2320 3393,2320 C 3405,2317 3405,2317 3411,2302 L 3426,2275 3435,2257 3447,2227 C 3447,2227 3447,2226 3447,2225 3447,2217 3449,2209 3454,2201 3454,2200 3455,2199 3456,2197 3457,2197 3457,2196 3458,2195 3460,2192 3460,2189 3460,2186 3460,2184 3460,2182 3459,2179 3459,2173 3459,2170 3465,2161 L 3474,2149 3489,2120 C 3490,2110 3492,2102 3495,2093 3501,2080 3504,2068 3504,2054 3506,2044 3509,2036 3513,2027 L 3513,2012 C 3510,2006 3510,2006 3513,1994 3516,1982 3516,1988 3519,1988 3520,1989 3520,1989 3521,1990 3522,1992 3522,1994 3522,1996 3522,1996 3522,1997 3522,1997 L 3528,1982 C 3532,1973 3534,1965 3534,1955 L 3534,1946 C 3534,1943 3534,1937 3531,1937 L 3531,1949 C 3525,1949 3522,1955 3516,1958 3518,1950 3519,1943 3519,1934 L 3531,1928 C 3532,1927 3533,1925 3534,1924 3536,1920 3537,1917 3537,1913 3537,1912 3537,1911 3537,1910 3537,1909 3537,1907 3537,1906 3537,1904 3537,1903 3537,1901 3541,1887 3543,1875 3543,1860 3543,1860 3543,1860 3543,1859 L 3543,1853 3552,1823 3555,1823 C 3556,1823 3556,1822 3557,1821 3558,1820 3558,1818 3558,1816 3558,1816 3558,1815 3558,1814 L 3555,1814 C 3554,1812 3554,1810 3554,1808 3554,1803 3555,1799 3558,1795 3559,1793 3560,1792 3561,1790 3560,1787 3559,1783 3557,1780 3552,1773 3547,1768 3540,1763 3538,1762 3536,1761 3534,1761 L 3525,1761 Z M 601,935 C 602,934 602,933 602,932 602,931 602,930 601,929 L 595,923 589,929 580,947 C 580,956 571,965 571,974 L 571,980 574,980 601,935 Z M 3486,1677 C 3486,1677 3486,1677 3486,1676 3491,1668 3493,1660 3493,1651 3493,1647 3493,1644 3492,1641 3492,1640 3492,1639 3492,1638 3492,1635 3493,1633 3494,1631 3495,1629 3496,1627 3498,1626 L 3501,1626 3501,1620 3495,1614 3492,1614 C 3489,1617 3486,1623 3483,1623 3480,1623 3480,1626 3480,1632 L 3480,1641 C 3479,1645 3479,1649 3479,1654 3479,1662 3480,1669 3483,1677 L 3486,1677 Z M 724,2709 C 721,2709 724,2715 724,2718 L 748,2742 751,2742 C 745,2733 742,2724 745,2721 741,2721 737,2720 734,2717 732,2717 731,2716 730,2715 L 724,2709 Z M 3510,1650 L 3513,1650 C 3514,1647 3514,1644 3514,1641 3514,1638 3514,1635 3513,1632 3504,1635 3504,1635 3504,1650 3504,1665 3507,1653 3510,1650 Z"/>
         </clipPath>
        </defs>
        <g clip-path="url(#clip_path_4)">
         <path fill="rgb(45,56,138)" stroke="none" d="M 550,160 L 624,160 624,2742 550,2742 550,160 Z"/>
         <path fill="rgb(45,57,139)" stroke="none" d="M 582,160 L 656,160 656,2742 582,2742 582,160 Z"/>
         <path fill="rgb(44,59,140)" stroke="none" d="M 614,160 L 688,160 688,2742 614,2742 614,160 Z"/>
         <path fill="rgb(44,60,141)" stroke="none" d="M 646,160 L 720,160 720,2742 646,2742 646,160 Z"/>
         <path fill="rgb(43,61,142)" stroke="none" d="M 677,160 L 752,160 752,2742 677,2742 677,160 Z"/>
         <path fill="rgb(43,62,143)" stroke="none" d="M 709,160 L 783,160 783,2742 709,2742 709,160 Z"/>
         <path fill="rgb(42,64,144)" stroke="none" d="M 741,160 L 815,160 815,2742 741,2742 741,160 Z"/>
         <path fill="rgb(42,65,146)" stroke="none" d="M 773,160 L 847,160 847,2742 773,2742 773,160 Z"/>
         <path fill="rgb(41,66,147)" stroke="none" d="M 805,160 L 879,160 879,2742 805,2742 805,160 Z"/>
         <path fill="rgb(41,67,148)" stroke="none" d="M 836,160 L 911,160 911,2742 836,2742 836,160 Z"/>
         <path fill="rgb(40,69,149)" stroke="none" d="M 868,160 L 942,160 942,2742 868,2742 868,160 Z"/>
         <path fill="rgb(40,70,150)" stroke="none" d="M 900,160 L 974,160 974,2742 900,2742 900,160 Z"/>
         <path fill="rgb(39,71,151)" stroke="none" d="M 932,160 L 1006,160 1006,2742 932,2742 932,160 Z"/>
         <path fill="rgb(39,72,152)" stroke="none" d="M 964,160 L 1038,160 1038,2742 964,2742 964,160 Z"/>
         <path fill="rgb(38,74,153)" stroke="none" d="M 996,160 L 1070,160 1070,2742 996,2742 996,160 Z"/>
         <path fill="rgb(38,75,154)" stroke="none" d="M 1027,160 L 1101,160 1101,2742 1027,2742 1027,160 Z"/>
         <path fill="rgb(37,76,155)" stroke="none" d="M 1059,160 L 1133,160 1133,2742 1059,2742 1059,160 Z"/>
         <path fill="rgb(37,77,156)" stroke="none" d="M 1091,160 L 1165,160 1165,2742 1091,2742 1091,160 Z"/>
         <path fill="rgb(36,79,157)" stroke="none" d="M 1123,160 L 1197,160 1197,2742 1123,2742 1123,160 Z"/>
         <path fill="rgb(36,80,158)" stroke="none" d="M 1155,160 L 1229,160 1229,2742 1155,2742 1155,160 Z"/>
         <path fill="rgb(35,81,159)" stroke="none" d="M 1186,160 L 1260,160 1260,2742 1186,2742 1186,160 Z"/>
         <path fill="rgb(35,82,161)" stroke="none" d="M 1218,160 L 1292,160 1292,2742 1218,2742 1218,160 Z"/>
         <path fill="rgb(34,84,162)" stroke="none" d="M 1250,160 L 1324,160 1324,2742 1250,2742 1250,160 Z"/>
         <path fill="rgb(34,85,163)" stroke="none" d="M 1282,160 L 1356,160 1356,2742 1282,2742 1282,160 Z"/>
         <path fill="rgb(34,86,164)" stroke="none" d="M 1314,160 L 1388,160 1388,2742 1314,2742 1314,160 Z"/>
         <path fill="rgb(33,87,165)" stroke="none" d="M 1345,160 L 1419,160 1419,2742 1345,2742 1345,160 Z"/>
         <path fill="rgb(33,89,166)" stroke="none" d="M 1377,160 L 1451,160 1451,2742 1377,2742 1377,160 Z"/>
         <path fill="rgb(32,90,167)" stroke="none" d="M 1409,160 L 1483,160 1483,2742 1409,2742 1409,160 Z"/>
         <path fill="rgb(32,91,168)" stroke="none" d="M 1441,160 L 1515,160 1515,2742 1441,2742 1441,160 Z"/>
         <path fill="rgb(31,92,169)" stroke="none" d="M 1473,160 L 1547,160 1547,2742 1473,2742 1473,160 Z"/>
         <path fill="rgb(31,94,170)" stroke="none" d="M 1504,160 L 1579,160 1579,2742 1504,2742 1504,160 Z"/>
         <path fill="rgb(30,95,171)" stroke="none" d="M 1536,160 L 1610,160 1610,2742 1536,2742 1536,160 Z"/>
         <path fill="rgb(30,96,172)" stroke="none" d="M 1568,160 L 1642,160 1642,2742 1568,2742 1568,160 Z"/>
         <path fill="rgb(29,97,173)" stroke="none" d="M 1600,160 L 1674,160 1674,2742 1600,2742 1600,160 Z"/>
         <path fill="rgb(29,99,175)" stroke="none" d="M 1632,160 L 1706,160 1706,2742 1632,2742 1632,160 Z"/>
         <path fill="rgb(28,100,176)" stroke="none" d="M 1663,160 L 1738,160 1738,2742 1663,2742 1663,160 Z"/>
         <path fill="rgb(28,101,177)" stroke="none" d="M 1695,160 L 1769,160 1769,2742 1695,2742 1695,160 Z"/>
         <path fill="rgb(27,102,178)" stroke="none" d="M 1727,160 L 1801,160 1801,2742 1727,2742 1727,160 Z"/>
         <path fill="rgb(27,104,179)" stroke="none" d="M 1759,160 L 1833,160 1833,2742 1759,2742 1759,160 Z"/>
         <path fill="rgb(26,105,180)" stroke="none" d="M 1791,160 L 1865,160 1865,2742 1791,2742 1791,160 Z"/>
         <path fill="rgb(26,106,181)" stroke="none" d="M 1822,160 L 1897,160 1897,2742 1822,2742 1822,160 Z"/>
         <path fill="rgb(25,107,182)" stroke="none" d="M 1854,160 L 1928,160 1928,2742 1854,2742 1854,160 Z"/>
         <path fill="rgb(25,109,183)" stroke="none" d="M 1886,160 L 1960,160 1960,2742 1886,2742 1886,160 Z"/>
         <path fill="rgb(24,110,184)" stroke="none" d="M 1918,160 L 1992,160 1992,2742 1918,2742 1918,160 Z"/>
         <path fill="rgb(24,111,185)" stroke="none" d="M 1950,160 L 2024,160 2024,2742 1950,2742 1950,160 Z"/>
         <path fill="rgb(23,112,186)" stroke="none" d="M 1981,160 L 2056,160 2056,2742 1981,2742 1981,160 Z"/>
         <path fill="rgb(23,114,187)" stroke="none" d="M 2013,160 L 2087,160 2087,2742 2013,2742 2013,160 Z"/>
         <path fill="rgb(22,115,189)" stroke="none" d="M 2045,160 L 2119,160 2119,2742 2045,2742 2045,160 Z"/>
         <path fill="rgb(22,116,190)" stroke="none" d="M 2077,160 L 2151,160 2151,2742 2077,2742 2077,160 Z"/>
         <path fill="rgb(22,118,191)" stroke="none" d="M 2109,160 L 2183,160 2183,2742 2109,2742 2109,160 Z"/>
         <path fill="rgb(21,119,192)" stroke="none" d="M 2140,160 L 2215,160 2215,2742 2140,2742 2140,160 Z"/>
         <path fill="rgb(21,120,193)" stroke="none" d="M 2172,160 L 2246,160 2246,2742 2172,2742 2172,160 Z"/>
         <path fill="rgb(20,121,194)" stroke="none" d="M 2204,160 L 2278,160 2278,2742 2204,2742 2204,160 Z"/>
         <path fill="rgb(20,123,195)" stroke="none" d="M 2236,160 L 2310,160 2310,2742 2236,2742 2236,160 Z"/>
         <path fill="rgb(19,124,196)" stroke="none" d="M 2268,160 L 2342,160 2342,2742 2268,2742 2268,160 Z"/>
         <path fill="rgb(19,125,197)" stroke="none" d="M 2299,160 L 2374,160 2374,2742 2299,2742 2299,160 Z"/>
         <path fill="rgb(18,126,198)" stroke="none" d="M 2331,160 L 2405,160 2405,2742 2331,2742 2331,160 Z"/>
         <path fill="rgb(18,128,199)" stroke="none" d="M 2363,160 L 2437,160 2437,2742 2363,2742 2363,160 Z"/>
         <path fill="rgb(17,129,200)" stroke="none" d="M 2395,160 L 2469,160 2469,2742 2395,2742 2395,160 Z"/>
         <path fill="rgb(17,130,201)" stroke="none" d="M 2427,160 L 2501,160 2501,2742 2427,2742 2427,160 Z"/>
         <path fill="rgb(16,131,202)" stroke="none" d="M 2458,160 L 2533,160 2533,2742 2458,2742 2458,160 Z"/>
         <path fill="rgb(16,133,204)" stroke="none" d="M 2490,160 L 2564,160 2564,2742 2490,2742 2490,160 Z"/>
         <path fill="rgb(15,134,205)" stroke="none" d="M 2522,160 L 2596,160 2596,2742 2522,2742 2522,160 Z"/>
         <path fill="rgb(15,135,206)" stroke="none" d="M 2554,160 L 2628,160 2628,2742 2554,2742 2554,160 Z"/>
         <path fill="rgb(14,136,207)" stroke="none" d="M 2586,160 L 2660,160 2660,2742 2586,2742 2586,160 Z"/>
         <path fill="rgb(14,138,208)" stroke="none" d="M 2618,160 L 2692,160 2692,2742 2618,2742 2618,160 Z"/>
         <path fill="rgb(13,139,209)" stroke="none" d="M 2649,160 L 2723,160 2723,2742 2649,2742 2649,160 Z"/>
         <path fill="rgb(13,140,210)" stroke="none" d="M 2681,160 L 2755,160 2755,2742 2681,2742 2681,160 Z"/>
         <path fill="rgb(12,141,211)" stroke="none" d="M 2713,160 L 2787,160 2787,2742 2713,2742 2713,160 Z"/>
         <path fill="rgb(12,143,212)" stroke="none" d="M 2745,160 L 2819,160 2819,2742 2745,2742 2745,160 Z"/>
         <path fill="rgb(11,144,213)" stroke="none" d="M 2777,160 L 2851,160 2851,2742 2777,2742 2777,160 Z"/>
         <path fill="rgb(11,145,214)" stroke="none" d="M 2808,160 L 2882,160 2882,2742 2808,2742 2808,160 Z"/>
         <path fill="rgb(11,146,215)" stroke="none" d="M 2840,160 L 2914,160 2914,2742 2840,2742 2840,160 Z"/>
         <path fill="rgb(10,148,216)" stroke="none" d="M 2872,160 L 2946,160 2946,2742 2872,2742 2872,160 Z"/>
         <path fill="rgb(10,149,218)" stroke="none" d="M 2904,160 L 2978,160 2978,2742 2904,2742 2904,160 Z"/>
         <path fill="rgb(9,150,219)" stroke="none" d="M 2936,160 L 3010,160 3010,2742 2936,2742 2936,160 Z"/>
         <path fill="rgb(9,151,220)" stroke="none" d="M 2967,160 L 3041,160 3041,2742 2967,2742 2967,160 Z"/>
         <path fill="rgb(8,153,221)" stroke="none" d="M 2999,160 L 3073,160 3073,2742 2999,2742 2999,160 Z"/>
         <path fill="rgb(8,154,222)" stroke="none" d="M 3031,160 L 3105,160 3105,2742 3031,2742 3031,160 Z"/>
         <path fill="rgb(7,155,223)" stroke="none" d="M 3063,160 L 3137,160 3137,2742 3063,2742 3063,160 Z"/>
         <path fill="rgb(7,156,224)" stroke="none" d="M 3095,160 L 3169,160 3169,2742 3095,2742 3095,160 Z"/>
         <path fill="rgb(6,158,225)" stroke="none" d="M 3126,160 L 3200,160 3200,2742 3126,2742 3126,160 Z"/>
         <path fill="rgb(6,159,226)" stroke="none" d="M 3158,160 L 3232,160 3232,2742 3158,2742 3158,160 Z"/>
         <path fill="rgb(5,160,227)" stroke="none" d="M 3190,160 L 3264,160 3264,2742 3190,2742 3190,160 Z"/>
         <path fill="rgb(5,161,228)" stroke="none" d="M 3222,160 L 3296,160 3296,2742 3222,2742 3222,160 Z"/>
         <path fill="rgb(4,163,229)" stroke="none" d="M 3254,160 L 3328,160 3328,2742 3254,2742 3254,160 Z"/>
         <path fill="rgb(4,164,230)" stroke="none" d="M 3285,160 L 3360,160 3360,2742 3285,2742 3285,160 Z"/>
         <path fill="rgb(3,165,231)" stroke="none" d="M 3317,160 L 3391,160 3391,2742 3317,2742 3317,160 Z"/>
         <path fill="rgb(3,166,233)" stroke="none" d="M 3349,160 L 3423,160 3423,2742 3349,2742 3349,160 Z"/>
         <path fill="rgb(2,168,234)" stroke="none" d="M 3381,160 L 3455,160 3455,2742 3381,2742 3381,160 Z"/>
         <path fill="rgb(2,169,235)" stroke="none" d="M 3413,160 L 3487,160 3487,2742 3413,2742 3413,160 Z"/>
         <path fill="rgb(1,170,236)" stroke="none" d="M 3444,160 L 3519,160 3519,2742 3444,2742 3444,160 Z"/>
         <path fill="rgb(1,171,237)" stroke="none" d="M 3476,160 L 3550,160 3550,2742 3476,2742 3476,160 Z"/>
         <path fill="rgb(0,173,238)" stroke="none" d="M 3508,160 L 3582,160 3582,2742 3508,2742 3508,160 Z"/>
        </g>
        <defs>
         <clipPath id="clip_path_5" clipPathUnits="userSpaceOnUse">
          <path d="M 3522,1868 L 3522,1868 C 3522,1868 3523,1867 3523,1867 3525,1864 3526,1861 3526,1858 3526,1856 3525,1855 3525,1853 3525,1850 3522,1847 3522,1850 L 3516,1850 3516,1856 C 3516,1868 3519,1871 3522,1868 L 3522,1868 Z M 3525,1623 L 3522,1623 3522,1641 3522,1641 C 3524,1636 3525,1632 3525,1627 3525,1626 3525,1624 3525,1623 L 3525,1623 Z M 841,2784 L 835,2784 835,2790 841,2796 847,2796 847,2790 841,2784 Z M 3432,1787 C 3432,1784 3432,1784 3429,1784 L 3432,1787 Z M 625,2601 L 640,2616 628,2598 625,2601 Z"/>
         </clipPath>
        </defs>
        <g clip-path="url(#clip_path_5)">
         <path fill="rgb(45,56,138)" stroke="none" d="M 604,1623 L 678,1623 678,2796 604,2796 604,1623 Z"/>
         <path fill="rgb(45,57,139)" stroke="none" d="M 636,1623 L 710,1623 710,2796 636,2796 636,1623 Z"/>
         <path fill="rgb(44,59,140)" stroke="none" d="M 668,1623 L 742,1623 742,2796 668,2796 668,1623 Z"/>
         <path fill="rgb(44,60,141)" stroke="none" d="M 700,1623 L 774,1623 774,2796 700,2796 700,1623 Z"/>
         <path fill="rgb(43,61,142)" stroke="none" d="M 732,1623 L 806,1623 806,2796 732,2796 732,1623 Z"/>
         <path fill="rgb(43,62,144)" stroke="none" d="M 763,1623 L 838,1623 838,2796 763,2796 763,1623 Z"/>
         <path fill="rgb(42,64,145)" stroke="none" d="M 795,1623 L 870,1623 870,2796 795,2796 795,1623 Z"/>
         <path fill="rgb(42,65,146)" stroke="none" d="M 827,1623 L 901,1623 901,2796 827,2796 827,1623 Z"/>
         <path fill="rgb(41,66,147)" stroke="none" d="M 859,1623 L 933,1623 933,2796 859,2796 859,1623 Z"/>
         <path fill="rgb(41,68,148)" stroke="none" d="M 891,1623 L 965,1623 965,2796 891,2796 891,1623 Z"/>
         <path fill="rgb(40,69,149)" stroke="none" d="M 923,1623 L 997,1623 997,2796 923,2796 923,1623 Z"/>
         <path fill="rgb(40,70,150)" stroke="none" d="M 955,1623 L 1029,1623 1029,2796 955,2796 955,1623 Z"/>
         <path fill="rgb(39,72,151)" stroke="none" d="M 987,1623 L 1061,1623 1061,2796 987,2796 987,1623 Z"/>
         <path fill="rgb(39,73,152)" stroke="none" d="M 1018,1623 L 1093,1623 1093,2796 1018,2796 1018,1623 Z"/>
         <path fill="rgb(38,74,154)" stroke="none" d="M 1050,1623 L 1125,1623 1125,2796 1050,2796 1050,1623 Z"/>
         <path fill="rgb(38,75,155)" stroke="none" d="M 1082,1623 L 1156,1623 1156,2796 1082,2796 1082,1623 Z"/>
         <path fill="rgb(37,77,156)" stroke="none" d="M 1114,1623 L 1188,1623 1188,2796 1114,2796 1114,1623 Z"/>
         <path fill="rgb(37,78,157)" stroke="none" d="M 1146,1623 L 1220,1623 1220,2796 1146,2796 1146,1623 Z"/>
         <path fill="rgb(36,79,158)" stroke="none" d="M 1178,1623 L 1252,1623 1252,2796 1178,2796 1178,1623 Z"/>
         <path fill="rgb(36,81,159)" stroke="none" d="M 1210,1623 L 1284,1623 1284,2796 1210,2796 1210,1623 Z"/>
         <path fill="rgb(35,82,160)" stroke="none" d="M 1242,1623 L 1316,1623 1316,2796 1242,2796 1242,1623 Z"/>
         <path fill="rgb(35,83,161)" stroke="none" d="M 1273,1623 L 1348,1623 1348,2796 1273,2796 1273,1623 Z"/>
         <path fill="rgb(34,85,162)" stroke="none" d="M 1305,1623 L 1380,1623 1380,2796 1305,2796 1305,1623 Z"/>
         <path fill="rgb(34,86,164)" stroke="none" d="M 1337,1623 L 1411,1623 1411,2796 1337,2796 1337,1623 Z"/>
         <path fill="rgb(33,87,165)" stroke="none" d="M 1369,1623 L 1443,1623 1443,2796 1369,2796 1369,1623 Z"/>
         <path fill="rgb(33,88,166)" stroke="none" d="M 1401,1623 L 1475,1623 1475,2796 1401,2796 1401,1623 Z"/>
         <path fill="rgb(32,90,167)" stroke="none" d="M 1433,1623 L 1507,1623 1507,2796 1433,2796 1433,1623 Z"/>
         <path fill="rgb(32,91,168)" stroke="none" d="M 1465,1623 L 1539,1623 1539,2796 1465,2796 1465,1623 Z"/>
         <path fill="rgb(31,92,169)" stroke="none" d="M 1497,1623 L 1571,1623 1571,2796 1497,2796 1497,1623 Z"/>
         <path fill="rgb(31,94,170)" stroke="none" d="M 1528,1623 L 1603,1623 1603,2796 1528,2796 1528,1623 Z"/>
         <path fill="rgb(30,95,171)" stroke="none" d="M 1560,1623 L 1634,1623 1634,2796 1560,2796 1560,1623 Z"/>
         <path fill="rgb(30,96,172)" stroke="none" d="M 1592,1623 L 1666,1623 1666,2796 1592,2796 1592,1623 Z"/>
         <path fill="rgb(29,97,174)" stroke="none" d="M 1624,1623 L 1698,1623 1698,2796 1624,2796 1624,1623 Z"/>
         <path fill="rgb(29,99,175)" stroke="none" d="M 1656,1623 L 1730,1623 1730,2796 1656,2796 1656,1623 Z"/>
         <path fill="rgb(28,100,176)" stroke="none" d="M 1688,1623 L 1762,1623 1762,2796 1688,2796 1688,1623 Z"/>
         <path fill="rgb(28,101,177)" stroke="none" d="M 1720,1623 L 1794,1623 1794,2796 1720,2796 1720,1623 Z"/>
         <path fill="rgb(27,103,178)" stroke="none" d="M 1751,1623 L 1826,1623 1826,2796 1751,2796 1751,1623 Z"/>
         <path fill="rgb(27,104,179)" stroke="none" d="M 1783,1623 L 1858,1623 1858,2796 1783,2796 1783,1623 Z"/>
         <path fill="rgb(26,105,180)" stroke="none" d="M 1815,1623 L 1889,1623 1889,2796 1815,2796 1815,1623 Z"/>
         <path fill="rgb(26,107,181)" stroke="none" d="M 1847,1623 L 1921,1623 1921,2796 1847,2796 1847,1623 Z"/>
         <path fill="rgb(25,108,182)" stroke="none" d="M 1879,1623 L 1953,1623 1953,2796 1879,2796 1879,1623 Z"/>
         <path fill="rgb(25,109,184)" stroke="none" d="M 1911,1623 L 1985,1623 1985,2796 1911,2796 1911,1623 Z"/>
         <path fill="rgb(24,110,185)" stroke="none" d="M 1943,1623 L 2017,1623 2017,2796 1943,2796 1943,1623 Z"/>
         <path fill="rgb(24,112,186)" stroke="none" d="M 1975,1623 L 2049,1623 2049,2796 1975,2796 1975,1623 Z"/>
         <path fill="rgb(23,113,187)" stroke="none" d="M 2006,1623 L 2081,1623 2081,2796 2006,2796 2006,1623 Z"/>
         <path fill="rgb(23,114,188)" stroke="none" d="M 2038,1623 L 2113,1623 2113,2796 2038,2796 2038,1623 Z"/>
         <path fill="rgb(22,116,189)" stroke="none" d="M 2070,1623 L 2144,1623 2144,2796 2070,2796 2070,1623 Z"/>
         <path fill="rgb(22,117,190)" stroke="none" d="M 2102,1623 L 2176,1623 2176,2796 2102,2796 2102,1623 Z"/>
         <path fill="rgb(21,118,191)" stroke="none" d="M 2134,1623 L 2208,1623 2208,2796 2134,2796 2134,1623 Z"/>
         <path fill="rgb(21,120,192)" stroke="none" d="M 2166,1623 L 2240,1623 2240,2796 2166,2796 2166,1623 Z"/>
         <path fill="rgb(20,121,193)" stroke="none" d="M 2198,1623 L 2272,1623 2272,2796 2198,2796 2198,1623 Z"/>
         <path fill="rgb(20,122,195)" stroke="none" d="M 2230,1623 L 2304,1623 2304,2796 2230,2796 2230,1623 Z"/>
         <path fill="rgb(19,123,196)" stroke="none" d="M 2261,1623 L 2336,1623 2336,2796 2261,2796 2261,1623 Z"/>
         <path fill="rgb(19,125,197)" stroke="none" d="M 2293,1623 L 2368,1623 2368,2796 2293,2796 2293,1623 Z"/>
         <path fill="rgb(18,126,198)" stroke="none" d="M 2325,1623 L 2399,1623 2399,2796 2325,2796 2325,1623 Z"/>
         <path fill="rgb(18,127,199)" stroke="none" d="M 2357,1623 L 2431,1623 2431,2796 2357,2796 2357,1623 Z"/>
         <path fill="rgb(17,129,200)" stroke="none" d="M 2389,1623 L 2463,1623 2463,2796 2389,2796 2389,1623 Z"/>
         <path fill="rgb(17,130,201)" stroke="none" d="M 2421,1623 L 2495,1623 2495,2796 2421,2796 2421,1623 Z"/>
         <path fill="rgb(16,131,202)" stroke="none" d="M 2453,1623 L 2527,1623 2527,2796 2453,2796 2453,1623 Z"/>
         <path fill="rgb(16,133,203)" stroke="none" d="M 2485,1623 L 2559,1623 2559,2796 2485,2796 2485,1623 Z"/>
         <path fill="rgb(15,134,205)" stroke="none" d="M 2516,1623 L 2591,1623 2591,2796 2516,2796 2516,1623 Z"/>
         <path fill="rgb(15,135,206)" stroke="none" d="M 2548,1623 L 2622,1623 2622,2796 2548,2796 2548,1623 Z"/>
         <path fill="rgb(14,136,207)" stroke="none" d="M 2580,1623 L 2654,1623 2654,2796 2580,2796 2580,1623 Z"/>
         <path fill="rgb(14,138,208)" stroke="none" d="M 2612,1623 L 2686,1623 2686,2796 2612,2796 2612,1623 Z"/>
         <path fill="rgb(13,139,209)" stroke="none" d="M 2644,1623 L 2718,1623 2718,2796 2644,2796 2644,1623 Z"/>
         <path fill="rgb(13,140,210)" stroke="none" d="M 2676,1623 L 2750,1623 2750,2796 2676,2796 2676,1623 Z"/>
         <path fill="rgb(12,142,211)" stroke="none" d="M 2708,1623 L 2782,1623 2782,2796 2708,2796 2708,1623 Z"/>
         <path fill="rgb(12,143,212)" stroke="none" d="M 2740,1623 L 2814,1623 2814,2796 2740,2796 2740,1623 Z"/>
         <path fill="rgb(11,144,213)" stroke="none" d="M 2771,1623 L 2846,1623 2846,2796 2771,2796 2771,1623 Z"/>
         <path fill="rgb(11,145,215)" stroke="none" d="M 2803,1623 L 2877,1623 2877,2796 2803,2796 2803,1623 Z"/>
         <path fill="rgb(10,147,216)" stroke="none" d="M 2835,1623 L 2909,1623 2909,2796 2835,2796 2835,1623 Z"/>
         <path fill="rgb(10,148,217)" stroke="none" d="M 2867,1623 L 2941,1623 2941,2796 2867,2796 2867,1623 Z"/>
         <path fill="rgb(9,149,218)" stroke="none" d="M 2899,1623 L 2973,1623 2973,2796 2899,2796 2899,1623 Z"/>
         <path fill="rgb(9,151,219)" stroke="none" d="M 2931,1623 L 3005,1623 3005,2796 2931,2796 2931,1623 Z"/>
         <path fill="rgb(8,152,220)" stroke="none" d="M 2963,1623 L 3037,1623 3037,2796 2963,2796 2963,1623 Z"/>
         <path fill="rgb(8,153,221)" stroke="none" d="M 2994,1623 L 3069,1623 3069,2796 2994,2796 2994,1623 Z"/>
         <path fill="rgb(7,155,222)" stroke="none" d="M 3026,1623 L 3101,1623 3101,2796 3026,2796 3026,1623 Z"/>
         <path fill="rgb(7,156,223)" stroke="none" d="M 3058,1623 L 3132,1623 3132,2796 3058,2796 3058,1623 Z"/>
         <path fill="rgb(6,157,225)" stroke="none" d="M 3090,1623 L 3164,1623 3164,2796 3090,2796 3090,1623 Z"/>
         <path fill="rgb(6,158,226)" stroke="none" d="M 3122,1623 L 3196,1623 3196,2796 3122,2796 3122,1623 Z"/>
         <path fill="rgb(5,160,227)" stroke="none" d="M 3154,1623 L 3228,1623 3228,2796 3154,2796 3154,1623 Z"/>
         <path fill="rgb(5,161,228)" stroke="none" d="M 3186,1623 L 3260,1623 3260,2796 3186,2796 3186,1623 Z"/>
         <path fill="rgb(4,162,229)" stroke="none" d="M 3218,1623 L 3292,1623 3292,2796 3218,2796 3218,1623 Z"/>
         <path fill="rgb(4,164,230)" stroke="none" d="M 3249,1623 L 3324,1623 3324,2796 3249,2796 3249,1623 Z"/>
         <path fill="rgb(3,165,231)" stroke="none" d="M 3281,1623 L 3356,1623 3356,2796 3281,2796 3281,1623 Z"/>
         <path fill="rgb(3,166,232)" stroke="none" d="M 3313,1623 L 3387,1623 3387,2796 3313,2796 3313,1623 Z"/>
         <path fill="rgb(2,168,233)" stroke="none" d="M 3345,1623 L 3419,1623 3419,2796 3345,2796 3345,1623 Z"/>
         <path fill="rgb(2,169,235)" stroke="none" d="M 3377,1623 L 3451,1623 3451,2796 3377,2796 3377,1623 Z"/>
         <path fill="rgb(1,170,236)" stroke="none" d="M 3409,1623 L 3483,1623 3483,2796 3409,2796 3409,1623 Z"/>
         <path fill="rgb(1,171,237)" stroke="none" d="M 3441,1623 L 3515,1623 3515,2796 3441,2796 3441,1623 Z"/>
         <path fill="rgb(0,173,238)" stroke="none" d="M 3473,1623 L 3547,1623 3547,2796 3473,2796 3473,1623 Z"/>
        </g>
        <defs>
         <clipPath id="clip_path_6" clipPathUnits="userSpaceOnUse">
          <path d="M 3109,716 L 3103,707 3100,707 3109,716 Z M 503,983 L 503,983 C 503,982 504,981 504,980 505,979 505,978 506,977 L 506,983 503,983 Z M 820,2781 L 817,2781 C 820,2784 823,2781 820,2778 L 820,2781 Z M 826,2802 L 829,2802 826,2799 826,2802 826,2802 Z"/>
         </clipPath>
        </defs>
        <g clip-path="url(#clip_path_6)">
         <path fill="rgb(45,56,138)" stroke="none" d="M 481,707 L 556,707 556,2802 481,2802 481,707 Z"/>
         <path fill="rgb(44,57,139)" stroke="none" d="M 513,707 L 587,707 587,2802 513,2802 513,707 Z"/>
         <path fill="rgb(44,59,140)" stroke="none" d="M 545,707 L 619,707 619,2802 545,2802 545,707 Z"/>
         <path fill="rgb(43,60,142)" stroke="none" d="M 577,707 L 651,707 651,2802 577,2802 577,707 Z"/>
         <path fill="rgb(43,62,143)" stroke="none" d="M 609,707 L 683,707 683,2802 609,2802 609,707 Z"/>
         <path fill="rgb(42,63,144)" stroke="none" d="M 640,707 L 714,707 714,2802 640,2802 640,707 Z"/>
         <path fill="rgb(42,65,145)" stroke="none" d="M 672,707 L 746,707 746,2802 672,2802 672,707 Z"/>
         <path fill="rgb(41,66,147)" stroke="none" d="M 704,707 L 778,707 778,2802 704,2802 704,707 Z"/>
         <path fill="rgb(41,68,148)" stroke="none" d="M 736,707 L 810,707 810,2802 736,2802 736,707 Z"/>
         <path fill="rgb(40,69,149)" stroke="none" d="M 768,707 L 842,707 842,2802 768,2802 768,707 Z"/>
         <path fill="rgb(40,70,150)" stroke="none" d="M 799,707 L 873,707 873,2802 799,2802 799,707 Z"/>
         <path fill="rgb(39,72,152)" stroke="none" d="M 831,707 L 905,707 905,2802 831,2802 831,707 Z"/>
         <path fill="rgb(38,73,153)" stroke="none" d="M 863,707 L 937,707 937,2802 863,2802 863,707 Z"/>
         <path fill="rgb(38,75,154)" stroke="none" d="M 895,707 L 969,707 969,2802 895,2802 895,707 Z"/>
         <path fill="rgb(37,76,155)" stroke="none" d="M 926,707 L 1001,707 1001,2802 926,2802 926,707 Z"/>
         <path fill="rgb(37,78,156)" stroke="none" d="M 958,707 L 1032,707 1032,2802 958,2802 958,707 Z"/>
         <path fill="rgb(36,79,158)" stroke="none" d="M 990,707 L 1064,707 1064,2802 990,2802 990,707 Z"/>
         <path fill="rgb(36,80,159)" stroke="none" d="M 1022,707 L 1096,707 1096,2802 1022,2802 1022,707 Z"/>
         <path fill="rgb(35,82,160)" stroke="none" d="M 1054,707 L 1128,707 1128,2802 1054,2802 1054,707 Z"/>
         <path fill="rgb(35,83,161)" stroke="none" d="M 1085,707 L 1160,707 1160,2802 1085,2802 1085,707 Z"/>
         <path fill="rgb(34,85,163)" stroke="none" d="M 1117,707 L 1191,707 1191,2802 1117,2802 1117,707 Z"/>
         <path fill="rgb(33,86,164)" stroke="none" d="M 1149,707 L 1223,707 1223,2802 1149,2802 1149,707 Z"/>
         <path fill="rgb(33,88,165)" stroke="none" d="M 1181,707 L 1255,707 1255,2802 1181,2802 1181,707 Z"/>
         <path fill="rgb(32,89,166)" stroke="none" d="M 1213,707 L 1287,707 1287,2802 1213,2802 1213,707 Z"/>
         <path fill="rgb(32,91,168)" stroke="none" d="M 1244,707 L 1318,707 1318,2802 1244,2802 1244,707 Z"/>
         <path fill="rgb(31,92,169)" stroke="none" d="M 1276,707 L 1350,707 1350,2802 1276,2802 1276,707 Z"/>
         <path fill="rgb(31,93,170)" stroke="none" d="M 1308,707 L 1382,707 1382,2802 1308,2802 1308,707 Z"/>
         <path fill="rgb(30,95,171)" stroke="none" d="M 1340,707 L 1414,707 1414,2802 1340,2802 1340,707 Z"/>
         <path fill="rgb(30,96,172)" stroke="none" d="M 1371,707 L 1446,707 1446,2802 1371,2802 1371,707 Z"/>
         <path fill="rgb(29,98,174)" stroke="none" d="M 1403,707 L 1477,707 1477,2802 1403,2802 1403,707 Z"/>
         <path fill="rgb(29,99,175)" stroke="none" d="M 1435,707 L 1509,707 1509,2802 1435,2802 1435,707 Z"/>
         <path fill="rgb(28,101,176)" stroke="none" d="M 1467,707 L 1541,707 1541,2802 1467,2802 1467,707 Z"/>
         <path fill="rgb(27,102,177)" stroke="none" d="M 1499,707 L 1573,707 1573,2802 1499,2802 1499,707 Z"/>
         <path fill="rgb(27,103,179)" stroke="none" d="M 1530,707 L 1605,707 1605,2802 1530,2802 1530,707 Z"/>
         <path fill="rgb(26,105,180)" stroke="none" d="M 1562,707 L 1636,707 1636,2802 1562,2802 1562,707 Z"/>
         <path fill="rgb(26,106,181)" stroke="none" d="M 1594,707 L 1668,707 1668,2802 1594,2802 1594,707 Z"/>
         <path fill="rgb(25,108,182)" stroke="none" d="M 1626,707 L 1700,707 1700,2802 1626,2802 1626,707 Z"/>
         <path fill="rgb(25,109,184)" stroke="none" d="M 1658,707 L 1732,707 1732,2802 1658,2802 1658,707 Z"/>
         <path fill="rgb(24,111,185)" stroke="none" d="M 1689,707 L 1763,707 1763,2802 1689,2802 1689,707 Z"/>
         <path fill="rgb(24,112,186)" stroke="none" d="M 1721,707 L 1795,707 1795,2802 1721,2802 1721,707 Z"/>
         <path fill="rgb(23,114,187)" stroke="none" d="M 1753,707 L 1827,707 1827,2802 1753,2802 1753,707 Z"/>
         <path fill="rgb(22,115,189)" stroke="none" d="M 1785,707 L 1859,707 1859,2802 1785,2802 1785,707 Z"/>
         <path fill="rgb(22,116,190)" stroke="none" d="M 1816,707 L 1891,707 1891,2802 1816,2802 1816,707 Z"/>
         <path fill="rgb(21,118,191)" stroke="none" d="M 1848,707 L 1922,707 1922,2802 1848,2802 1848,707 Z"/>
         <path fill="rgb(21,119,192)" stroke="none" d="M 1880,707 L 1954,707 1954,2802 1880,2802 1880,707 Z"/>
         <path fill="rgb(20,121,193)" stroke="none" d="M 1912,707 L 1986,707 1986,2802 1912,2802 1912,707 Z"/>
         <path fill="rgb(20,122,195)" stroke="none" d="M 1944,707 L 2018,707 2018,2802 1944,2802 1944,707 Z"/>
         <path fill="rgb(19,124,196)" stroke="none" d="M 1975,707 L 2050,707 2050,2802 1975,2802 1975,707 Z"/>
         <path fill="rgb(19,125,197)" stroke="none" d="M 2007,707 L 2081,707 2081,2802 2007,2802 2007,707 Z"/>
         <path fill="rgb(18,127,198)" stroke="none" d="M 2039,707 L 2113,707 2113,2802 2039,2802 2039,707 Z"/>
         <path fill="rgb(18,128,200)" stroke="none" d="M 2071,707 L 2145,707 2145,2802 2071,2802 2071,707 Z"/>
         <path fill="rgb(17,129,201)" stroke="none" d="M 2103,707 L 2177,707 2177,2802 2103,2802 2103,707 Z"/>
         <path fill="rgb(16,131,202)" stroke="none" d="M 2134,707 L 2208,707 2208,2802 2134,2802 2134,707 Z"/>
         <path fill="rgb(16,132,203)" stroke="none" d="M 2166,707 L 2240,707 2240,2802 2166,2802 2166,707 Z"/>
         <path fill="rgb(15,134,205)" stroke="none" d="M 2198,707 L 2272,707 2272,2802 2198,2802 2198,707 Z"/>
         <path fill="rgb(15,135,206)" stroke="none" d="M 2230,707 L 2304,707 2304,2802 2230,2802 2230,707 Z"/>
         <path fill="rgb(14,137,207)" stroke="none" d="M 2261,707 L 2336,707 2336,2802 2261,2802 2261,707 Z"/>
         <path fill="rgb(14,138,208)" stroke="none" d="M 2293,707 L 2367,707 2367,2802 2293,2802 2293,707 Z"/>
         <path fill="rgb(13,139,209)" stroke="none" d="M 2325,707 L 2399,707 2399,2802 2325,2802 2325,707 Z"/>
         <path fill="rgb(13,141,211)" stroke="none" d="M 2357,707 L 2431,707 2431,2802 2357,2802 2357,707 Z"/>
         <path fill="rgb(12,142,212)" stroke="none" d="M 2389,707 L 2463,707 2463,2802 2389,2802 2389,707 Z"/>
         <path fill="rgb(12,144,213)" stroke="none" d="M 2420,707 L 2495,707 2495,2802 2420,2802 2420,707 Z"/>
         <path fill="rgb(11,145,214)" stroke="none" d="M 2452,707 L 2526,707 2526,2802 2452,2802 2452,707 Z"/>
         <path fill="rgb(10,147,216)" stroke="none" d="M 2484,707 L 2558,707 2558,2802 2484,2802 2484,707 Z"/>
         <path fill="rgb(10,148,217)" stroke="none" d="M 2516,707 L 2590,707 2590,2802 2516,2802 2516,707 Z"/>
         <path fill="rgb(9,150,218)" stroke="none" d="M 2548,707 L 2622,707 2622,2802 2548,2802 2548,707 Z"/>
         <path fill="rgb(9,151,219)" stroke="none" d="M 2579,707 L 2653,707 2653,2802 2579,2802 2579,707 Z"/>
         <path fill="rgb(8,152,221)" stroke="none" d="M 2611,707 L 2685,707 2685,2802 2611,2802 2611,707 Z"/>
         <path fill="rgb(8,154,222)" stroke="none" d="M 2643,707 L 2717,707 2717,2802 2643,2802 2643,707 Z"/>
         <path fill="rgb(7,155,223)" stroke="none" d="M 2675,707 L 2749,707 2749,2802 2675,2802 2675,707 Z"/>
         <path fill="rgb(7,157,224)" stroke="none" d="M 2706,707 L 2781,707 2781,2802 2706,2802 2706,707 Z"/>
         <path fill="rgb(6,158,225)" stroke="none" d="M 2738,707 L 2812,707 2812,2802 2738,2802 2738,707 Z"/>
         <path fill="rgb(5,160,227)" stroke="none" d="M 2770,707 L 2844,707 2844,2802 2770,2802 2770,707 Z"/>
         <path fill="rgb(5,161,228)" stroke="none" d="M 2802,707 L 2876,707 2876,2802 2802,2802 2802,707 Z"/>
         <path fill="rgb(4,162,229)" stroke="none" d="M 2834,707 L 2908,707 2908,2802 2834,2802 2834,707 Z"/>
         <path fill="rgb(4,164,230)" stroke="none" d="M 2865,707 L 2940,707 2940,2802 2865,2802 2865,707 Z"/>
         <path fill="rgb(3,165,232)" stroke="none" d="M 2897,707 L 2971,707 2971,2802 2897,2802 2897,707 Z"/>
         <path fill="rgb(3,167,233)" stroke="none" d="M 2929,707 L 3003,707 3003,2802 2929,2802 2929,707 Z"/>
         <path fill="rgb(2,168,234)" stroke="none" d="M 2961,707 L 3035,707 3035,2802 2961,2802 2961,707 Z"/>
         <path fill="rgb(2,170,235)" stroke="none" d="M 2993,707 L 3067,707 3067,2802 2993,2802 2993,707 Z"/>
         <path fill="rgb(1,171,237)" stroke="none" d="M 3024,707 L 3098,707 3098,2802 3024,2802 3024,707 Z"/>
         <path fill="rgb(1,173,238)" stroke="none" d="M 3056,707 L 3130,707 3130,2802 3056,2802 3056,707 Z"/>
        </g>
        <path fill="rgb(255,255,255)" stroke="none" d="M 1163,1044 L 1959,1044 1974,1147 1163,1147 C 1136,1147 1111,1171 1111,1198 L 1111,2173 C 1111,2204 1136,2228 1163,2228 L 2653,2228 C 2680,2228 2704,2204 2704,2173 L 2704,2052 C 2734,2070 2768,2082 2804,2082 L 2804,2173 C 2804,2258 2738,2328 2653,2328 L 1163,2328 C 1078,2328 1011,2258 1011,2173 L 1011,1198 C 1011,1114 1078,1044 1163,1044 L 1163,1044 Z M 2014,711 L 1781,647 C 1714,629 1741,526 1811,544 L 2108,623 2138,811 3161,986 2998,1547 2153,1547 C 2150,1547 2147,1550 2144,1550 2138,1553 2135,1559 2132,1568 2126,1577 2123,1586 2123,1598 2123,1610 2126,1619 2132,1628 2135,1637 2138,1643 2144,1646 2150,1649 2153,1649 2156,1649 L 2162,1649 2946,1649 C 3016,1649 3016,1755 2946,1755 L 2162,1755 C 2135,1758 2111,1749 2086,1737 2065,1722 2047,1701 2035,1677 2023,1653 2017,1625 2017,1598 2017,1571 2023,1544 2035,1519 2047,1495 2065,1474 2086,1459 2099,1453 2108,1447 2120,1444 2086,1198 2053,953 2014,711 L 2014,711 Z M 2807,1813 C 2762,1813 2722,1849 2722,1898 2722,1943 2762,1980 2807,1980 2853,1980 2892,1943 2892,1898 2892,1849 2853,1813 2807,1813 L 2807,1813 Z M 2268,1813 C 2314,1813 2350,1849 2350,1898 2350,1943 2314,1980 2268,1980 2220,1980 2183,1943 2183,1898 2183,1849 2220,1813 2268,1813 L 2268,1813 Z M 754,2419 L 1653,2419 C 1662,2476 1717,2525 1781,2525 L 2035,2525 C 2099,2525 2153,2476 2162,2419 L 3062,2419 C 3062,2609 2998,2673 2853,2673 L 963,2673 C 818,2673 754,2609 754,2419 L 754,2419 Z"/>
        <defs>
         <clipPath id="clip_path_7" clipPathUnits="userSpaceOnUse">
          <path d="M 6060,2373 L 6060,3134 3876,3134 5167,1103 4409,1103 4409,1357 3901,1357 3901,595 6089,595 4801,2627 5552,2627 5552,2373 6060,2373 Z M 8066,1357 L 7558,1357 7558,1103 7051,1103 7051,1611 7558,1611 7558,2119 7051,2119 7051,2627 7558,2627 7558,2373 8066,2373 8066,3134 6289,3134 6289,2627 6543,2627 6543,1103 6289,1103 6289,595 8066,595 8066,1357 Z M 10327,1357 L 9819,1357 9819,1103 9565,1103 9565,2627 9819,2627 9819,3134 8803,3134 8803,2627 9057,2627 9057,1103 8803,1103 8803,1357 8295,1357 8295,595 10327,595 10327,1357 Z M 12584,1357 L 12076,1357 12076,1103 11822,1103 11822,2627 12076,2627 12076,3134 11060,3134 11060,2627 11314,2627 11314,1103 11060,1103 11060,1357 10552,1357 10552,595 12584,595 12584,1357 Z M 15298,3134 L 14282,3134 14282,2627 14521,2627 14445,2373 13661,2373 13585,2627 13824,2627 13824,3134 12809,3134 12809,2627 13055,2627 13665,595 14441,595 15051,2627 15298,2627 15298,3134 Z M 14064,1103 L 14042,1103 13814,1865 14292,1865 14064,1103 Z"/>
         </clipPath>
        </defs>
        <g clip-path="url(#clip_path_7)">
         <path fill="rgb(45,56,138)" stroke="none" d="M 3855,595 L 3967,595 3967,3135 3855,3135 3855,595 Z"/>
         <path fill="rgb(45,57,139)" stroke="none" d="M 3925,595 L 4038,595 4038,3135 3925,3135 3925,595 Z"/>
         <path fill="rgb(44,57,139)" stroke="none" d="M 3996,595 L 4108,595 4108,3135 3996,3135 3996,595 Z"/>
         <path fill="rgb(44,58,140)" stroke="none" d="M 4066,595 L 4179,595 4179,3135 4066,3135 4066,595 Z"/>
         <path fill="rgb(44,59,140)" stroke="none" d="M 4137,595 L 4249,595 4249,3135 4137,3135 4137,595 Z"/>
         <path fill="rgb(44,60,141)" stroke="none" d="M 4207,595 L 4320,595 4320,3135 4207,3135 4207,595 Z"/>
         <path fill="rgb(43,60,142)" stroke="none" d="M 4278,595 L 4390,595 4390,3135 4278,3135 4278,595 Z"/>
         <path fill="rgb(43,61,142)" stroke="none" d="M 4348,595 L 4461,595 4461,3135 4348,3135 4348,595 Z"/>
         <path fill="rgb(43,62,143)" stroke="none" d="M 4419,595 L 4532,595 4532,3135 4419,3135 4419,595 Z"/>
         <path fill="rgb(43,63,144)" stroke="none" d="M 4489,595 L 4602,595 4602,3135 4489,3135 4489,595 Z"/>
         <path fill="rgb(42,63,144)" stroke="none" d="M 4560,595 L 4673,595 4673,3135 4560,3135 4560,595 Z"/>
         <path fill="rgb(42,64,145)" stroke="none" d="M 4630,595 L 4743,595 4743,3135 4630,3135 4630,595 Z"/>
         <path fill="rgb(42,65,145)" stroke="none" d="M 4701,595 L 4814,595 4814,3135 4701,3135 4701,595 Z"/>
         <path fill="rgb(41,65,146)" stroke="none" d="M 4771,595 L 4884,595 4884,3135 4771,3135 4771,595 Z"/>
         <path fill="rgb(41,66,147)" stroke="none" d="M 4842,595 L 4955,595 4955,3135 4842,3135 4842,595 Z"/>
         <path fill="rgb(41,67,147)" stroke="none" d="M 4912,595 L 5025,595 5025,3135 4912,3135 4912,595 Z"/>
         <path fill="rgb(41,68,148)" stroke="none" d="M 4983,595 L 5096,595 5096,3135 4983,3135 4983,595 Z"/>
         <path fill="rgb(40,68,149)" stroke="none" d="M 5053,595 L 5166,595 5166,3135 5053,3135 5053,595 Z"/>
         <path fill="rgb(40,69,149)" stroke="none" d="M 5124,595 L 5237,595 5237,3135 5124,3135 5124,595 Z"/>
         <path fill="rgb(40,70,150)" stroke="none" d="M 5194,595 L 5307,595 5307,3135 5194,3135 5194,595 Z"/>
         <path fill="rgb(39,71,150)" stroke="none" d="M 5265,595 L 5378,595 5378,3135 5265,3135 5265,595 Z"/>
         <path fill="rgb(39,71,151)" stroke="none" d="M 5335,595 L 5448,595 5448,3135 5335,3135 5335,595 Z"/>
         <path fill="rgb(39,72,152)" stroke="none" d="M 5406,595 L 5519,595 5519,3135 5406,3135 5406,595 Z"/>
         <path fill="rgb(39,73,152)" stroke="none" d="M 5476,595 L 5589,595 5589,3135 5476,3135 5476,595 Z"/>
         <path fill="rgb(38,73,153)" stroke="none" d="M 5547,595 L 5660,595 5660,3135 5547,3135 5547,595 Z"/>
         <path fill="rgb(38,74,154)" stroke="none" d="M 5617,595 L 5730,595 5730,3135 5617,3135 5617,595 Z"/>
         <path fill="rgb(38,75,154)" stroke="none" d="M 5688,595 L 5801,595 5801,3135 5688,3135 5688,595 Z"/>
         <path fill="rgb(37,76,155)" stroke="none" d="M 5758,595 L 5871,595 5871,3135 5758,3135 5758,595 Z"/>
         <path fill="rgb(37,76,155)" stroke="none" d="M 5829,595 L 5942,595 5942,3135 5829,3135 5829,595 Z"/>
         <path fill="rgb(37,77,156)" stroke="none" d="M 5899,595 L 6012,595 6012,3135 5899,3135 5899,595 Z"/>
         <path fill="rgb(37,78,157)" stroke="none" d="M 5970,595 L 6083,595 6083,3135 5970,3135 5970,595 Z"/>
         <path fill="rgb(36,79,157)" stroke="none" d="M 6040,595 L 6153,595 6153,3135 6040,3135 6040,595 Z"/>
         <path fill="rgb(36,79,158)" stroke="none" d="M 6111,595 L 6224,595 6224,3135 6111,3135 6111,595 Z"/>
         <path fill="rgb(36,80,159)" stroke="none" d="M 6181,595 L 6294,595 6294,3135 6181,3135 6181,595 Z"/>
         <path fill="rgb(36,81,159)" stroke="none" d="M 6252,595 L 6365,595 6365,3135 6252,3135 6252,595 Z"/>
         <path fill="rgb(35,81,160)" stroke="none" d="M 6322,595 L 6435,595 6435,3135 6322,3135 6322,595 Z"/>
         <path fill="rgb(35,82,160)" stroke="none" d="M 6393,595 L 6506,595 6506,3135 6393,3135 6393,595 Z"/>
         <path fill="rgb(35,83,161)" stroke="none" d="M 6463,595 L 6576,595 6576,3135 6463,3135 6463,595 Z"/>
         <path fill="rgb(34,84,162)" stroke="none" d="M 6534,595 L 6647,595 6647,3135 6534,3135 6534,595 Z"/>
         <path fill="rgb(34,84,162)" stroke="none" d="M 6604,595 L 6717,595 6717,3135 6604,3135 6604,595 Z"/>
         <path fill="rgb(34,85,163)" stroke="none" d="M 6675,595 L 6788,595 6788,3135 6675,3135 6675,595 Z"/>
         <path fill="rgb(34,86,164)" stroke="none" d="M 6745,595 L 6858,595 6858,3135 6745,3135 6745,595 Z"/>
         <path fill="rgb(33,87,164)" stroke="none" d="M 6816,595 L 6929,595 6929,3135 6816,3135 6816,595 Z"/>
         <path fill="rgb(33,87,165)" stroke="none" d="M 6886,595 L 6999,595 6999,3135 6886,3135 6886,595 Z"/>
         <path fill="rgb(33,88,165)" stroke="none" d="M 6957,595 L 7070,595 7070,3135 6957,3135 6957,595 Z"/>
         <path fill="rgb(32,89,166)" stroke="none" d="M 7027,595 L 7140,595 7140,3135 7027,3135 7027,595 Z"/>
         <path fill="rgb(32,90,167)" stroke="none" d="M 7098,595 L 7211,595 7211,3135 7098,3135 7098,595 Z"/>
         <path fill="rgb(32,90,167)" stroke="none" d="M 7168,595 L 7281,595 7281,3135 7168,3135 7168,595 Z"/>
         <path fill="rgb(32,91,168)" stroke="none" d="M 7239,595 L 7352,595 7352,3135 7239,3135 7239,595 Z"/>
         <path fill="rgb(31,92,169)" stroke="none" d="M 7309,595 L 7422,595 7422,3135 7309,3135 7309,595 Z"/>
         <path fill="rgb(31,92,169)" stroke="none" d="M 7380,595 L 7493,595 7493,3135 7380,3135 7380,595 Z"/>
         <path fill="rgb(31,93,170)" stroke="none" d="M 7450,595 L 7563,595 7563,3135 7450,3135 7450,595 Z"/>
         <path fill="rgb(31,94,170)" stroke="none" d="M 7521,595 L 7634,595 7634,3135 7521,3135 7521,595 Z"/>
         <path fill="rgb(30,95,171)" stroke="none" d="M 7591,595 L 7704,595 7704,3135 7591,3135 7591,595 Z"/>
         <path fill="rgb(30,95,172)" stroke="none" d="M 7662,595 L 7775,595 7775,3135 7662,3135 7662,595 Z"/>
         <path fill="rgb(30,96,172)" stroke="none" d="M 7732,595 L 7845,595 7845,3135 7732,3135 7732,595 Z"/>
         <path fill="rgb(29,97,173)" stroke="none" d="M 7803,595 L 7916,595 7916,3135 7803,3135 7803,595 Z"/>
         <path fill="rgb(29,98,174)" stroke="none" d="M 7873,595 L 7986,595 7986,3135 7873,3135 7873,595 Z"/>
         <path fill="rgb(29,98,174)" stroke="none" d="M 7944,595 L 8057,595 8057,3135 7944,3135 7944,595 Z"/>
         <path fill="rgb(29,99,175)" stroke="none" d="M 8014,595 L 8127,595 8127,3135 8014,3135 8014,595 Z"/>
         <path fill="rgb(28,100,175)" stroke="none" d="M 8085,595 L 8198,595 8198,3135 8085,3135 8085,595 Z"/>
         <path fill="rgb(28,100,176)" stroke="none" d="M 8155,595 L 8268,595 8268,3135 8155,3135 8155,595 Z"/>
         <path fill="rgb(28,101,177)" stroke="none" d="M 8226,595 L 8339,595 8339,3135 8226,3135 8226,595 Z"/>
         <path fill="rgb(27,102,177)" stroke="none" d="M 8296,595 L 8409,595 8409,3135 8296,3135 8296,595 Z"/>
         <path fill="rgb(27,103,178)" stroke="none" d="M 8367,595 L 8480,595 8480,3135 8367,3135 8367,595 Z"/>
         <path fill="rgb(27,103,179)" stroke="none" d="M 8437,595 L 8550,595 8550,3135 8437,3135 8437,595 Z"/>
         <path fill="rgb(27,104,179)" stroke="none" d="M 8508,595 L 8621,595 8621,3135 8508,3135 8508,595 Z"/>
         <path fill="rgb(26,105,180)" stroke="none" d="M 8578,595 L 8691,595 8691,3135 8578,3135 8578,595 Z"/>
         <path fill="rgb(26,106,180)" stroke="none" d="M 8649,595 L 8762,595 8762,3135 8649,3135 8649,595 Z"/>
         <path fill="rgb(26,106,181)" stroke="none" d="M 8719,595 L 8832,595 8832,3135 8719,3135 8719,595 Z"/>
         <path fill="rgb(26,107,182)" stroke="none" d="M 8790,595 L 8903,595 8903,3135 8790,3135 8790,595 Z"/>
         <path fill="rgb(25,108,182)" stroke="none" d="M 8860,595 L 8973,595 8973,3135 8860,3135 8860,595 Z"/>
         <path fill="rgb(25,108,183)" stroke="none" d="M 8931,595 L 9044,595 9044,3135 8931,3135 8931,595 Z"/>
         <path fill="rgb(25,109,184)" stroke="none" d="M 9001,595 L 9114,595 9114,3135 9001,3135 9001,595 Z"/>
         <path fill="rgb(24,110,184)" stroke="none" d="M 9072,595 L 9185,595 9185,3135 9072,3135 9072,595 Z"/>
         <path fill="rgb(24,111,185)" stroke="none" d="M 9142,595 L 9255,595 9255,3135 9142,3135 9142,595 Z"/>
         <path fill="rgb(24,111,185)" stroke="none" d="M 9213,595 L 9326,595 9326,3135 9213,3135 9213,595 Z"/>
         <path fill="rgb(24,112,186)" stroke="none" d="M 9283,595 L 9396,595 9396,3135 9283,3135 9283,595 Z"/>
         <path fill="rgb(23,113,187)" stroke="none" d="M 9354,595 L 9467,595 9467,3135 9354,3135 9354,595 Z"/>
         <path fill="rgb(23,114,187)" stroke="none" d="M 9424,595 L 9537,595 9537,3135 9424,3135 9424,595 Z"/>
         <path fill="rgb(23,114,188)" stroke="none" d="M 9495,595 L 9608,595 9608,3135 9495,3135 9495,595 Z"/>
         <path fill="rgb(22,115,189)" stroke="none" d="M 9565,595 L 9678,595 9678,3135 9565,3135 9565,595 Z"/>
         <path fill="rgb(22,116,189)" stroke="none" d="M 9636,595 L 9749,595 9749,3135 9636,3135 9636,595 Z"/>
         <path fill="rgb(22,116,190)" stroke="none" d="M 9706,595 L 9819,595 9819,3135 9706,3135 9706,595 Z"/>
         <path fill="rgb(22,117,190)" stroke="none" d="M 9777,595 L 9890,595 9890,3135 9777,3135 9777,595 Z"/>
         <path fill="rgb(21,118,191)" stroke="none" d="M 9848,595 L 9960,595 9960,3135 9848,3135 9848,595 Z"/>
         <path fill="rgb(21,119,192)" stroke="none" d="M 9918,595 L 10031,595 10031,3135 9918,3135 9918,595 Z"/>
         <path fill="rgb(21,119,192)" stroke="none" d="M 9989,595 L 10101,595 10101,3135 9989,3135 9989,595 Z"/>
         <path fill="rgb(21,120,193)" stroke="none" d="M 10059,595 L 10172,595 10172,3135 10059,3135 10059,595 Z"/>
         <path fill="rgb(20,121,193)" stroke="none" d="M 10130,595 L 10242,595 10242,3135 10130,3135 10130,595 Z"/>
         <path fill="rgb(20,122,194)" stroke="none" d="M 10200,595 L 10313,595 10313,3135 10200,3135 10200,595 Z"/>
         <path fill="rgb(20,122,195)" stroke="none" d="M 10271,595 L 10383,595 10383,3135 10271,3135 10271,595 Z"/>
         <path fill="rgb(19,123,195)" stroke="none" d="M 10341,595 L 10454,595 10454,3135 10341,3135 10341,595 Z"/>
         <path fill="rgb(19,124,196)" stroke="none" d="M 10412,595 L 10524,595 10524,3135 10412,3135 10412,595 Z"/>
         <path fill="rgb(19,124,197)" stroke="none" d="M 10482,595 L 10595,595 10595,3135 10482,3135 10482,595 Z"/>
         <path fill="rgb(19,125,197)" stroke="none" d="M 10553,595 L 10665,595 10665,3135 10553,3135 10553,595 Z"/>
         <path fill="rgb(18,126,198)" stroke="none" d="M 10623,595 L 10736,595 10736,3135 10623,3135 10623,595 Z"/>
         <path fill="rgb(18,127,198)" stroke="none" d="M 10694,595 L 10806,595 10806,3135 10694,3135 10694,595 Z"/>
         <path fill="rgb(18,127,199)" stroke="none" d="M 10764,595 L 10877,595 10877,3135 10764,3135 10764,595 Z"/>
         <path fill="rgb(17,128,200)" stroke="none" d="M 10835,595 L 10947,595 10947,3135 10835,3135 10835,595 Z"/>
         <path fill="rgb(17,129,200)" stroke="none" d="M 10905,595 L 11018,595 11018,3135 10905,3135 10905,595 Z"/>
         <path fill="rgb(17,130,201)" stroke="none" d="M 10976,595 L 11088,595 11088,3135 10976,3135 10976,595 Z"/>
         <path fill="rgb(17,130,202)" stroke="none" d="M 11046,595 L 11159,595 11159,3135 11046,3135 11046,595 Z"/>
         <path fill="rgb(16,131,202)" stroke="none" d="M 11117,595 L 11229,595 11229,3135 11117,3135 11117,595 Z"/>
         <path fill="rgb(16,132,203)" stroke="none" d="M 11187,595 L 11300,595 11300,3135 11187,3135 11187,595 Z"/>
         <path fill="rgb(16,132,203)" stroke="none" d="M 11258,595 L 11370,595 11370,3135 11258,3135 11258,595 Z"/>
         <path fill="rgb(16,133,204)" stroke="none" d="M 11328,595 L 11441,595 11441,3135 11328,3135 11328,595 Z"/>
         <path fill="rgb(15,134,205)" stroke="none" d="M 11399,595 L 11511,595 11511,3135 11399,3135 11399,595 Z"/>
         <path fill="rgb(15,135,205)" stroke="none" d="M 11469,595 L 11582,595 11582,3135 11469,3135 11469,595 Z"/>
         <path fill="rgb(15,135,206)" stroke="none" d="M 11540,595 L 11652,595 11652,3135 11540,3135 11540,595 Z"/>
         <path fill="rgb(14,136,207)" stroke="none" d="M 11610,595 L 11723,595 11723,3135 11610,3135 11610,595 Z"/>
         <path fill="rgb(14,137,207)" stroke="none" d="M 11681,595 L 11793,595 11793,3135 11681,3135 11681,595 Z"/>
         <path fill="rgb(14,138,208)" stroke="none" d="M 11751,595 L 11864,595 11864,3135 11751,3135 11751,595 Z"/>
         <path fill="rgb(14,138,208)" stroke="none" d="M 11822,595 L 11934,595 11934,3135 11822,3135 11822,595 Z"/>
         <path fill="rgb(13,139,209)" stroke="none" d="M 11892,595 L 12005,595 12005,3135 11892,3135 11892,595 Z"/>
         <path fill="rgb(13,140,210)" stroke="none" d="M 11963,595 L 12075,595 12075,3135 11963,3135 11963,595 Z"/>
         <path fill="rgb(13,140,210)" stroke="none" d="M 12033,595 L 12146,595 12146,3135 12033,3135 12033,595 Z"/>
         <path fill="rgb(12,141,211)" stroke="none" d="M 12104,595 L 12216,595 12216,3135 12104,3135 12104,595 Z"/>
         <path fill="rgb(12,142,212)" stroke="none" d="M 12174,595 L 12287,595 12287,3135 12174,3135 12174,595 Z"/>
         <path fill="rgb(12,143,212)" stroke="none" d="M 12245,595 L 12357,595 12357,3135 12245,3135 12245,595 Z"/>
         <path fill="rgb(12,143,213)" stroke="none" d="M 12315,595 L 12428,595 12428,3135 12315,3135 12315,595 Z"/>
         <path fill="rgb(11,144,213)" stroke="none" d="M 12386,595 L 12499,595 12499,3135 12386,3135 12386,595 Z"/>
         <path fill="rgb(11,145,214)" stroke="none" d="M 12456,595 L 12569,595 12569,3135 12456,3135 12456,595 Z"/>
         <path fill="rgb(11,146,215)" stroke="none" d="M 12527,595 L 12640,595 12640,3135 12527,3135 12527,595 Z"/>
         <path fill="rgb(11,146,215)" stroke="none" d="M 12597,595 L 12710,595 12710,3135 12597,3135 12597,595 Z"/>
         <path fill="rgb(10,147,216)" stroke="none" d="M 12668,595 L 12781,595 12781,3135 12668,3135 12668,595 Z"/>
         <path fill="rgb(10,148,217)" stroke="none" d="M 12738,595 L 12851,595 12851,3135 12738,3135 12738,595 Z"/>
         <path fill="rgb(10,149,217)" stroke="none" d="M 12809,595 L 12922,595 12922,3135 12809,3135 12809,595 Z"/>
         <path fill="rgb(9,149,218)" stroke="none" d="M 12879,595 L 12992,595 12992,3135 12879,3135 12879,595 Z"/>
         <path fill="rgb(9,150,218)" stroke="none" d="M 12950,595 L 13063,595 13063,3135 12950,3135 12950,595 Z"/>
         <path fill="rgb(9,151,219)" stroke="none" d="M 13020,595 L 13133,595 13133,3135 13020,3135 13020,595 Z"/>
         <path fill="rgb(9,151,220)" stroke="none" d="M 13091,595 L 13204,595 13204,3135 13091,3135 13091,595 Z"/>
         <path fill="rgb(8,152,220)" stroke="none" d="M 13161,595 L 13274,595 13274,3135 13161,3135 13161,595 Z"/>
         <path fill="rgb(8,153,221)" stroke="none" d="M 13232,595 L 13345,595 13345,3135 13232,3135 13232,595 Z"/>
         <path fill="rgb(8,154,222)" stroke="none" d="M 13302,595 L 13415,595 13415,3135 13302,3135 13302,595 Z"/>
         <path fill="rgb(7,154,222)" stroke="none" d="M 13373,595 L 13486,595 13486,3135 13373,3135 13373,595 Z"/>
         <path fill="rgb(7,155,223)" stroke="none" d="M 13443,595 L 13556,595 13556,3135 13443,3135 13443,595 Z"/>
         <path fill="rgb(7,156,223)" stroke="none" d="M 13514,595 L 13627,595 13627,3135 13514,3135 13514,595 Z"/>
         <path fill="rgb(7,157,224)" stroke="none" d="M 13584,595 L 13697,595 13697,3135 13584,3135 13584,595 Z"/>
         <path fill="rgb(6,157,225)" stroke="none" d="M 13655,595 L 13768,595 13768,3135 13655,3135 13655,595 Z"/>
         <path fill="rgb(6,158,225)" stroke="none" d="M 13725,595 L 13838,595 13838,3135 13725,3135 13725,595 Z"/>
         <path fill="rgb(6,159,226)" stroke="none" d="M 13796,595 L 13909,595 13909,3135 13796,3135 13796,595 Z"/>
         <path fill="rgb(6,159,227)" stroke="none" d="M 13866,595 L 13979,595 13979,3135 13866,3135 13866,595 Z"/>
         <path fill="rgb(5,160,227)" stroke="none" d="M 13937,595 L 14050,595 14050,3135 13937,3135 13937,595 Z"/>
         <path fill="rgb(5,161,228)" stroke="none" d="M 14007,595 L 14120,595 14120,3135 14007,3135 14007,595 Z"/>
         <path fill="rgb(5,162,228)" stroke="none" d="M 14078,595 L 14191,595 14191,3135 14078,3135 14078,595 Z"/>
         <path fill="rgb(4,162,229)" stroke="none" d="M 14148,595 L 14261,595 14261,3135 14148,3135 14148,595 Z"/>
         <path fill="rgb(4,163,230)" stroke="none" d="M 14219,595 L 14332,595 14332,3135 14219,3135 14219,595 Z"/>
         <path fill="rgb(4,164,230)" stroke="none" d="M 14289,595 L 14402,595 14402,3135 14289,3135 14289,595 Z"/>
         <path fill="rgb(4,165,231)" stroke="none" d="M 14360,595 L 14473,595 14473,3135 14360,3135 14360,595 Z"/>
         <path fill="rgb(3,165,232)" stroke="none" d="M 14430,595 L 14543,595 14543,3135 14430,3135 14430,595 Z"/>
         <path fill="rgb(3,166,232)" stroke="none" d="M 14501,595 L 14614,595 14614,3135 14501,3135 14501,595 Z"/>
         <path fill="rgb(3,167,233)" stroke="none" d="M 14571,595 L 14684,595 14684,3135 14571,3135 14571,595 Z"/>
         <path fill="rgb(2,167,233)" stroke="none" d="M 14642,595 L 14755,595 14755,3135 14642,3135 14642,595 Z"/>
         <path fill="rgb(2,168,234)" stroke="none" d="M 14712,595 L 14825,595 14825,3135 14712,3135 14712,595 Z"/>
         <path fill="rgb(2,169,235)" stroke="none" d="M 14783,595 L 14896,595 14896,3135 14783,3135 14783,595 Z"/>
         <path fill="rgb(2,170,235)" stroke="none" d="M 14853,595 L 14966,595 14966,3135 14853,3135 14853,595 Z"/>
         <path fill="rgb(1,170,236)" stroke="none" d="M 14924,595 L 15037,595 15037,3135 14924,3135 14924,595 Z"/>
         <path fill="rgb(1,171,237)" stroke="none" d="M 14994,595 L 15107,595 15107,3135 14994,3135 14994,595 Z"/>
         <path fill="rgb(1,172,237)" stroke="none" d="M 15065,595 L 15178,595 15178,3135 15065,3135 15065,595 Z"/>
         <path fill="rgb(1,173,238)" stroke="none" d="M 15135,595 L 15248,595 15248,3135 15135,3135 15135,595 Z"/>
         <path fill="rgb(0,173,238)" stroke="none" d="M 15206,595 L 15319,595 15319,3135 15206,3135 15206,595 Z"/>
        </g>
       </g>
      </g>
     </g>
    </g>
   </g>
  </g>
 </g>
</svg>